<svg width="200" height="200" viewBox="0 0 200 200" fill="none" xmlns="http://www.w3.org/2000/svg">
<g id="404 Error Page not Found with people connecting a plug-cuate 1">
<g id="freepik--background-complete--inject-7">
<path id="Vector" d="M85.472 128.688L85.104 130.94L84.712 133.36L81.112 155.428H75.228L78.824 133.36L79.22 130.94L79.588 128.688H85.472Z" fill="#EBEBEB"/>
<path id="Vector_2" d="M84.62 128.688C84.308 130.924 83.976 133.156 83.64 135.384L82.6 142.076L81.512 148.756L80.952 152.092L80.368 155.428L80.848 152.076L81.348 148.728L82.4 142.04L83.488 135.36C83.844 133.132 84.22 130.908 84.62 128.688Z" fill="#C7C7C7"/>
<path id="Vector_3" d="M85.104 130.94L84.712 133.36H78.824L79.22 130.94H85.104Z" fill="#C7C7C7"/>
<path id="Vector_4" d="M114.528 128.688L114.896 130.94L115.288 133.36L118.888 155.428H124.772L121.176 133.36L120.78 130.94L120.412 128.688H114.528Z" fill="#EBEBEB"/>
<path id="Vector_5" d="M115.4 128.688C115.708 130.924 116.044 133.156 116.38 135.384L117.416 142.076L118.504 148.756L119.068 152.092L119.652 155.428L119.172 152.076L118.672 148.728L117.632 142.04L116.544 135.36C116.172 133.132 115.796 130.908 115.4 128.688Z" fill="#C7C7C7"/>
<path id="Vector_6" d="M114.896 130.94H120.78L121.176 133.36H115.288L114.896 130.94Z" fill="#C7C7C7"/>
<path id="Vector_7" d="M85.256 122.48H80.592L81.172 118.128H84.676L85.256 122.48Z" fill="#C7C7C7"/>
<path id="Vector_8" d="M87.2088 115.783C87.6262 113.419 86.0475 111.163 83.6828 110.746C81.318 110.328 79.0626 111.907 78.6452 114.272C78.2278 116.637 79.8064 118.892 82.1712 119.309C84.536 119.727 86.7914 118.148 87.2088 115.783Z" fill="#DBDBDB"/>
<path id="Vector_9" d="M86.143 115.784C86.5642 114.006 85.4645 112.224 83.6868 111.802C81.909 111.381 80.1264 112.481 79.7052 114.259C79.284 116.036 80.3836 117.819 82.1614 118.24C83.9391 118.661 85.7217 117.562 86.143 115.784Z" fill="white"/>
<path id="Vector_10" d="M85.688 114.828C85.6573 114.434 85.5455 114.05 85.3597 113.702C85.1738 113.353 84.918 113.046 84.608 112.8C84.296 112.558 83.9379 112.382 83.5556 112.282C83.1733 112.182 82.7747 112.161 82.384 112.22C81.9962 112.281 81.6256 112.423 81.2962 112.637C80.9668 112.851 80.686 113.131 80.472 113.46C80.2462 113.812 80.0983 114.209 80.0383 114.623C79.9783 115.037 80.0075 115.459 80.124 115.86C80.3227 116.554 80.7869 117.142 81.416 117.496C82.0297 117.845 82.7499 117.956 83.44 117.808C84.1076 117.665 84.7061 117.298 85.136 116.768C85.5606 116.244 85.806 115.598 85.836 114.924C85.836 114.896 85.836 114.868 85.808 114.868C85.78 114.868 85.78 114.892 85.78 114.924C85.7648 115.197 85.7123 115.466 85.624 115.724C85.5319 115.978 85.4097 116.22 85.26 116.444C85.1023 116.662 84.9197 116.861 84.716 117.036C84.5067 117.211 84.277 117.36 84.032 117.48C83.6799 117.646 83.2971 117.737 82.9079 117.746C82.5188 117.756 82.1319 117.685 81.772 117.536C81.4111 117.383 81.0875 117.154 80.8237 116.864C80.5599 116.574 80.3622 116.23 80.244 115.856C80.1226 115.472 80.0855 115.066 80.1352 114.667C80.1849 114.267 80.3203 113.883 80.532 113.54C80.7366 113.215 81.0085 112.938 81.3293 112.727C81.6502 112.515 82.0126 112.376 82.392 112.316C82.9048 112.235 83.43 112.293 83.9122 112.485C84.3945 112.678 84.8159 112.996 85.132 113.408C85.2842 113.621 85.4079 113.852 85.5 114.096C85.5892 114.344 85.6483 114.602 85.676 114.864C85.676 114.864 85.688 114.84 85.688 114.828Z" fill="#EBEBEB"/>
<path id="Vector_11" d="M85.3 114.832C85.2714 114.495 85.1736 114.167 85.0125 113.869C84.8515 113.57 84.6307 113.309 84.364 113.1C84.0965 112.894 83.7907 112.744 83.4646 112.657C83.1384 112.571 82.7983 112.55 82.464 112.596C82.1298 112.646 81.8099 112.766 81.5253 112.948C81.2406 113.13 80.9975 113.37 80.812 113.652C80.6147 113.953 80.4841 114.293 80.4289 114.649C80.3737 115.005 80.3952 115.369 80.492 115.716C80.5746 116.016 80.7162 116.297 80.9085 116.543C81.1008 116.788 81.3399 116.992 81.612 117.144C82.1463 117.45 82.7757 117.544 83.376 117.408C83.9552 117.283 84.4737 116.963 84.844 116.5C85.2109 116.045 85.4225 115.484 85.448 114.9C85.448 114.876 85.448 114.852 85.424 114.852C85.4 114.852 85.392 114.872 85.392 114.9C85.3593 115.369 85.2019 115.82 84.9361 116.208C84.6702 116.595 84.3056 116.905 83.88 117.104C83.5773 117.251 83.2466 117.333 82.91 117.342C82.5735 117.352 82.2387 117.29 81.928 117.16C81.6154 117.028 81.3354 116.829 81.1075 116.578C80.8795 116.326 80.7091 116.028 80.608 115.704C80.5042 115.371 80.4741 115.02 80.5197 114.675C80.5653 114.33 80.6855 113.998 80.872 113.704C81.0482 113.427 81.2825 113.191 81.5587 113.012C81.8349 112.834 82.1465 112.718 82.472 112.672C82.9074 112.607 83.3522 112.659 83.7612 112.822C84.1701 112.985 84.5285 113.254 84.8 113.6C84.9306 113.781 85.0381 113.977 85.12 114.184C85.195 114.397 85.2473 114.616 85.276 114.84L85.3 114.832Z" fill="#EBEBEB"/>
<path id="Vector_12" d="M84.912 114.836C84.8832 114.555 84.7975 114.282 84.6599 114.035C84.5224 113.788 84.3359 113.572 84.112 113.4C83.6624 113.058 83.0966 112.906 82.536 112.976C82.2555 113.013 81.9859 113.109 81.7453 113.258C81.5046 113.407 81.2983 113.605 81.14 113.84C80.9689 114.093 80.8542 114.38 80.8038 114.682C80.7534 114.984 80.7685 115.292 80.848 115.588C80.9153 115.845 81.034 116.086 81.1969 116.297C81.3598 116.507 81.5636 116.682 81.796 116.812C82.2546 117.068 82.792 117.145 83.304 117.028C83.7977 116.913 84.236 116.63 84.544 116.228C84.8488 115.842 85.0276 115.371 85.056 114.88C85.056 114.856 85.056 114.836 85.028 114.836C85.0233 114.836 85.0187 114.838 85.0145 114.84C85.0103 114.842 85.0067 114.845 85.0037 114.849C85.0007 114.853 84.9985 114.857 84.9972 114.862C84.9959 114.866 84.9955 114.871 84.996 114.876C84.965 115.269 84.8311 115.648 84.6079 115.974C84.3847 116.299 84.0799 116.561 83.724 116.732C83.4691 116.858 83.1903 116.928 82.9061 116.937C82.6219 116.947 82.3389 116.896 82.076 116.788C81.8103 116.678 81.5724 116.51 81.3794 116.297C81.1864 116.084 81.0431 115.831 80.96 115.556C80.8772 115.276 80.8557 114.981 80.8972 114.692C80.9386 114.402 81.0419 114.125 81.2 113.88C81.351 113.651 81.5496 113.457 81.7823 113.312C82.0149 113.167 82.2761 113.074 82.548 113.04C82.9075 112.997 83.2719 113.04 83.612 113.164C83.9545 113.294 84.2548 113.515 84.48 113.804C84.5914 113.951 84.6829 114.112 84.752 114.284C84.8193 114.459 84.8662 114.642 84.892 114.828C84.892 114.828 84.916 114.84 84.912 114.836Z" fill="#EBEBEB"/>
<path id="Vector_13" d="M84.528 114.84C84.4692 114.389 84.2349 113.979 83.876 113.7C83.517 113.431 83.0698 113.308 82.624 113.356C82.3972 113.382 82.1785 113.456 81.9821 113.572C81.7857 113.689 81.616 113.845 81.484 114.032C81.3407 114.237 81.243 114.471 81.1975 114.717C81.1519 114.963 81.1596 115.217 81.22 115.46C81.273 115.674 81.3697 115.874 81.5039 116.049C81.6381 116.224 81.807 116.369 82 116.476C82.3802 116.686 82.8251 116.747 83.248 116.648C83.6501 116.55 84.007 116.319 84.26 115.992C84.5008 115.672 84.6401 115.287 84.66 114.888C84.6606 114.883 84.6603 114.879 84.6592 114.875C84.6581 114.871 84.6562 114.867 84.6535 114.864C84.6509 114.86 84.6477 114.858 84.644 114.856C84.6403 114.854 84.6362 114.852 84.632 114.852C84.632 114.852 84.604 114.852 84.6 114.884C84.576 115.201 84.4716 115.506 84.2966 115.771C84.1217 116.037 83.8819 116.253 83.6 116.4C83.3941 116.507 83.1672 116.569 82.9351 116.58C82.703 116.591 82.4712 116.551 82.256 116.464C82.0378 116.374 81.8428 116.236 81.6855 116.06C81.5283 115.884 81.4129 115.675 81.348 115.448C81.2839 115.22 81.2701 114.981 81.3074 114.748C81.3447 114.514 81.4322 114.292 81.564 114.096C81.6877 113.915 81.849 113.763 82.0367 113.651C82.2245 113.538 82.4344 113.468 82.652 113.444C82.9365 113.418 83.2233 113.455 83.492 113.552C83.7621 113.652 84.0009 113.821 84.184 114.044C84.2719 114.161 84.3457 114.289 84.404 114.424C84.4608 114.564 84.5024 114.71 84.528 114.86V114.84Z" fill="#EBEBEB"/>
<path id="Vector_14" d="M119.308 122.48H114.64L115.22 118.128H118.728L119.308 122.48Z" fill="#C7C7C7"/>
<path id="Vector_15" d="M121.345 115.403C121.705 113.026 120.07 110.807 117.692 110.446C115.315 110.086 113.096 111.721 112.736 114.099C112.375 116.476 114.011 118.695 116.388 119.056C118.765 119.416 120.985 117.781 121.345 115.403Z" fill="#DBDBDB"/>
<path id="Vector_16" d="M120.241 115.518C120.517 113.712 119.276 112.025 117.47 111.749C115.664 111.474 113.976 112.715 113.701 114.521C113.425 116.327 114.666 118.014 116.472 118.29C118.278 118.565 119.966 117.324 120.241 115.518Z" fill="white"/>
<path id="Vector_17" d="M119.74 114.828C119.709 114.434 119.596 114.051 119.411 113.702C119.225 113.353 118.969 113.046 118.66 112.8C118.348 112.558 117.99 112.382 117.607 112.282C117.225 112.182 116.827 112.161 116.436 112.22C116.048 112.281 115.678 112.423 115.348 112.637C115.019 112.85 114.738 113.131 114.524 113.46C114.296 113.811 114.148 114.208 114.087 114.622C114.027 115.036 114.058 115.459 114.176 115.86C114.373 116.555 114.838 117.143 115.468 117.496C116.082 117.845 116.802 117.956 117.492 117.808C118.16 117.665 118.758 117.298 119.188 116.768C119.613 116.244 119.858 115.598 119.888 114.924C119.888 114.896 119.888 114.868 119.86 114.868C119.832 114.868 119.832 114.892 119.828 114.924C119.812 115.196 119.761 115.465 119.676 115.724C119.584 115.979 119.461 116.221 119.308 116.444C118.995 116.89 118.572 117.247 118.08 117.48C117.729 117.647 117.347 117.738 116.958 117.748C116.569 117.758 116.183 117.685 115.824 117.536C115.462 117.383 115.138 117.154 114.874 116.864C114.609 116.574 114.411 116.23 114.292 115.856C114.171 115.472 114.135 115.066 114.185 114.666C114.236 114.266 114.372 113.882 114.584 113.54C114.789 113.215 115.06 112.938 115.381 112.726C115.702 112.515 116.065 112.375 116.444 112.316C116.957 112.235 117.482 112.293 117.964 112.485C118.446 112.677 118.868 112.996 119.184 113.408C119.335 113.621 119.458 113.852 119.552 114.096C119.64 114.344 119.698 114.602 119.724 114.864C119.724 114.864 119.74 114.84 119.74 114.828Z" fill="#EBEBEB"/>
<path id="Vector_18" d="M119.352 114.832C119.322 114.495 119.223 114.168 119.062 113.87C118.901 113.572 118.681 113.31 118.416 113.1C118.148 112.894 117.843 112.744 117.517 112.657C117.19 112.571 116.85 112.55 116.516 112.596C116.181 112.645 115.86 112.765 115.575 112.947C115.29 113.129 115.046 113.369 114.86 113.652C114.663 113.953 114.532 114.293 114.477 114.649C114.422 115.005 114.443 115.369 114.54 115.716C114.623 116.016 114.764 116.297 114.956 116.543C115.149 116.788 115.388 116.992 115.66 117.144C116.195 117.449 116.824 117.543 117.424 117.408C118.005 117.284 118.525 116.963 118.896 116.5C119.261 116.044 119.473 115.484 119.5 114.9C119.5 114.876 119.5 114.852 119.472 114.852C119.444 114.852 119.444 114.872 119.44 114.9C119.408 115.369 119.251 115.82 118.986 116.208C118.721 116.595 118.357 116.905 117.932 117.104C117.629 117.251 117.299 117.333 116.962 117.342C116.625 117.352 116.291 117.29 115.98 117.16C115.667 117.029 115.386 116.83 115.157 116.579C114.928 116.327 114.757 116.029 114.656 115.704C114.554 115.371 114.524 115.02 114.57 114.675C114.615 114.33 114.735 113.999 114.92 113.704C115.097 113.427 115.331 113.192 115.608 113.014C115.884 112.836 116.195 112.719 116.52 112.672C116.957 112.605 117.403 112.656 117.814 112.819C118.224 112.982 118.584 113.252 118.856 113.6C118.988 113.78 119.096 113.976 119.176 114.184C119.255 114.395 119.307 114.616 119.332 114.84C119.336 114.84 119.339 114.839 119.343 114.838C119.346 114.837 119.349 114.835 119.352 114.832Z" fill="#EBEBEB"/>
<path id="Vector_19" d="M118.964 114.836C118.933 114.556 118.847 114.284 118.709 114.037C118.572 113.791 118.387 113.574 118.164 113.4C117.714 113.059 117.149 112.907 116.588 112.976C116.309 113.014 116.041 113.111 115.802 113.26C115.563 113.409 115.357 113.607 115.2 113.84C115.029 114.094 114.914 114.381 114.863 114.682C114.812 114.984 114.826 115.293 114.904 115.588C114.973 115.845 115.093 116.086 115.257 116.296C115.42 116.507 115.624 116.682 115.856 116.812C116.313 117.068 116.849 117.145 117.36 117.028C117.855 116.914 118.294 116.631 118.604 116.228C118.91 115.843 119.087 115.372 119.112 114.88C119.112 114.856 119.112 114.836 119.088 114.836C119.083 114.837 119.079 114.838 119.075 114.841C119.07 114.843 119.067 114.846 119.064 114.85C119.061 114.853 119.058 114.858 119.057 114.862C119.056 114.867 119.055 114.872 119.056 114.876C119.024 115.27 118.89 115.648 118.667 115.974C118.444 116.299 118.139 116.561 117.784 116.732C117.529 116.858 117.25 116.928 116.966 116.938C116.682 116.948 116.399 116.897 116.136 116.788C115.87 116.679 115.632 116.511 115.439 116.298C115.246 116.085 115.103 115.832 115.02 115.556C114.937 115.276 114.916 114.981 114.957 114.692C114.999 114.403 115.102 114.126 115.26 113.88C115.41 113.651 115.608 113.458 115.84 113.313C116.072 113.167 116.333 113.075 116.604 113.04C116.965 112.998 117.331 113.04 117.672 113.164C118.015 113.294 118.315 113.516 118.54 113.804C118.651 113.952 118.743 114.113 118.812 114.284C118.876 114.461 118.922 114.643 118.952 114.828C118.955 114.832 118.959 114.835 118.964 114.836Z" fill="#EBEBEB"/>
<path id="Vector_20" d="M118.576 114.841C118.548 114.617 118.477 114.401 118.366 114.206C118.255 114.01 118.106 113.838 117.928 113.701C117.569 113.432 117.122 113.309 116.676 113.357C116.449 113.381 116.229 113.454 116.033 113.571C115.836 113.688 115.667 113.845 115.536 114.033C115.393 114.238 115.295 114.472 115.249 114.718C115.204 114.964 115.212 115.217 115.272 115.461C115.325 115.674 115.422 115.875 115.556 116.05C115.69 116.225 115.859 116.37 116.052 116.477C116.431 116.687 116.874 116.748 117.296 116.649C117.699 116.55 118.057 116.319 118.312 115.993C118.553 115.673 118.692 115.288 118.712 114.889C118.713 114.885 118.714 114.88 118.713 114.876C118.712 114.872 118.711 114.868 118.709 114.865C118.706 114.861 118.703 114.859 118.7 114.856C118.696 114.854 118.692 114.853 118.688 114.853C118.68 114.853 118.671 114.856 118.665 114.862C118.659 114.868 118.656 114.876 118.656 114.885C118.627 115.203 118.516 115.509 118.335 115.772C118.153 116.035 117.907 116.248 117.62 116.389C117.415 116.496 117.188 116.557 116.957 116.568C116.726 116.579 116.495 116.539 116.28 116.453C116.062 116.363 115.867 116.225 115.71 116.049C115.552 115.873 115.437 115.663 115.372 115.437C115.308 115.209 115.294 114.97 115.331 114.737C115.369 114.503 115.456 114.281 115.588 114.085C115.712 113.904 115.873 113.752 116.061 113.639C116.248 113.527 116.458 113.456 116.676 113.433C116.959 113.407 117.245 113.444 117.512 113.541C117.783 113.639 118.022 113.809 118.204 114.033C118.295 114.149 118.37 114.277 118.428 114.413C118.485 114.553 118.526 114.699 118.552 114.849C118.552 114.849 118.58 114.845 118.576 114.841Z" fill="#EBEBEB"/>
<path id="Vector_21" d="M129.32 120.264H70.676V131.48H129.32V120.264Z" fill="#DBDBDB"/>
<path id="Vector_22" d="M82.732 120.264L78.476 131.48H70.9L75.156 120.264H82.732Z" fill="#EBEBEB"/>
<path id="Vector_23" d="M98.256 120.264L94 131.48H86.424L90.68 120.264H98.256Z" fill="#EBEBEB"/>
<path id="Vector_24" d="M113.776 120.264L109.524 131.48H101.948L106.204 120.264H113.776Z" fill="#EBEBEB"/>
<path id="Vector_25" d="M129.304 120.264L125.048 131.48H117.472L121.728 120.264H129.304Z" fill="#EBEBEB"/>
<path id="Vector_26" d="M128.136 141.853H71.864V148.953H128.136V141.853Z" fill="#DBDBDB"/>
<path id="Vector_27" d="M83.428 141.853L79.348 148.949H72.08L76.164 141.853H83.428Z" fill="#EBEBEB"/>
<path id="Vector_28" d="M98.328 141.853L94.244 148.949H86.972L91.056 141.853H98.328Z" fill="#EBEBEB"/>
<path id="Vector_29" d="M113.22 141.853L109.136 148.949H101.868L105.952 141.853H113.22Z" fill="#EBEBEB"/>
<path id="Vector_30" d="M128.116 141.853L124.032 148.949H116.764L120.848 141.853H128.116Z" fill="#EBEBEB"/>
<path id="Vector_31" d="M187.12 66.844H141.848C141.848 66.844 146.336 54.584 153.244 54.584C160.152 54.584 162.316 63.044 162.316 63.044C162.316 63.044 166.976 58.448 170.808 58.448C174.64 58.448 177.964 64.524 177.964 64.524C177.964 64.524 183.376 61.256 187.12 66.844Z" fill="#EBEBEB"/>
<path id="Vector_32" d="M65.788 38.0882H44.632C44.632 38.0882 49.356 31.2402 53.084 31.2402C56.812 31.2402 57.908 35.8042 57.908 35.8042C57.908 35.8042 60.536 33.6762 62.972 34.0562C65.408 34.4362 65.788 38.0882 65.788 38.0882Z" fill="#EBEBEB"/>
<path id="Vector_33" d="M179.912 87.4046H158.756C158.756 87.4046 163.484 80.5566 167.208 80.5566C170.932 80.5566 172.032 85.1206 172.032 85.1206C172.032 85.1206 174.66 82.9886 177.096 83.3726C179.532 83.7566 179.912 87.4046 179.912 87.4046Z" fill="#EBEBEB"/>
<path id="Vector_34" d="M54.092 55.2519H12.88C12.88 55.2519 18.524 42.6519 24.56 41.8639C30.596 41.0759 33.484 51.2239 33.484 51.2239C33.484 51.2239 37.38 47.6239 40.44 47.6239C43.5 47.6239 45.864 52.3479 45.864 52.3479C45.864 52.3479 52 49.1239 54.092 55.2519Z" fill="#EBEBEB"/>
</g>
<g id="freepik--Floor--inject-7">
<path id="Vector_35" d="M14.364 155.528L35.572 155.432L56.784 155.396L99.2 155.328L141.62 155.396L162.828 155.432L184.036 155.528L162.828 155.624L141.62 155.66L99.2 155.728L56.784 155.66L35.572 155.624L14.364 155.528Z" fill="#263238"/>
</g>
<g id="freepik--Shadows--inject-7">
<path id="Vector_36" d="M100 187.052C146.412 187.052 184.036 182.666 184.036 177.256C184.036 171.846 146.412 167.46 100 167.46C53.5882 167.46 15.964 171.846 15.964 177.256C15.964 182.666 53.5882 187.052 100 187.052Z" fill="#EBEBEB"/>
</g>
<g id="freepik--character-2--inject-7">
<path id="Vector_37" d="M110.988 179.085C111.82 179.365 135.636 179.449 136.548 178.877C136.896 178.661 137.108 175.193 137.248 170.997C137.28 170.089 137.304 169.153 137.328 168.197L139.256 155.497L123.336 155.393L121.832 168.101L121.892 170.901C121.892 170.901 112.76 174.949 111.828 175.681C110.896 176.413 110.16 178.801 110.988 179.085Z" fill="#EB9481"/>
<path id="Vector_38" d="M110.988 179.084C111.82 179.364 135.636 179.448 136.548 178.876C136.968 178.612 137.2 173.548 137.328 168.2L121.832 168.104L121.892 170.904C121.892 170.904 112.76 174.952 111.828 175.684C110.896 176.416 110.16 178.8 110.988 179.084Z" fill="white"/>
<path id="Vector_39" d="M110.988 179.084C111.82 179.364 135.636 179.448 136.548 178.876C136.896 178.66 137.108 175.192 137.248 170.996L121.892 170.896C121.892 170.896 112.76 174.944 111.828 175.676C110.896 176.408 110.16 178.8 110.988 179.084Z" fill="#0A638A"/>
<path id="Vector_40" d="M111.336 178.132C115.336 178.048 131.44 178.085 135.392 178.305C135.424 178.305 135.424 178.328 135.392 178.332C131.436 178.5 115.324 178.333 111.332 178.197C111.248 178.193 111.252 178.132 111.336 178.132Z" fill="#263238"/>
<path id="Vector_41" d="M113.364 174.825C113.811 174.812 114.255 174.893 114.668 175.062C115.081 175.232 115.455 175.486 115.764 175.809C116.323 176.38 116.641 177.145 116.652 177.945C116.652 177.969 116.604 177.969 116.6 177.945C116.469 177.156 116.087 176.431 115.51 175.878C114.933 175.325 114.193 174.974 113.4 174.877C113.393 174.881 113.385 174.883 113.376 174.882C113.368 174.88 113.361 174.875 113.356 174.869C113.351 174.862 113.349 174.853 113.351 174.845C113.352 174.837 113.357 174.829 113.364 174.825Z" fill="#263238"/>
<path id="Vector_42" d="M120.344 171.289C121.944 171.289 123.792 171.845 124.78 173.153C124.82 173.205 124.748 173.257 124.7 173.233C123.299 172.496 121.824 171.91 120.3 171.485C120.274 171.479 120.251 171.463 120.237 171.44C120.223 171.418 120.218 171.391 120.224 171.365C120.23 171.339 120.246 171.316 120.268 171.302C120.291 171.287 120.318 171.283 120.344 171.289Z" fill="#263238"/>
<path id="Vector_43" d="M119.108 171.765C120.708 171.765 122.556 172.321 123.544 173.633C123.584 173.681 123.512 173.737 123.464 173.709C122.064 172.971 120.589 172.386 119.064 171.965C119.041 171.955 119.023 171.938 119.012 171.917C119 171.895 118.997 171.87 119.002 171.846C119.007 171.822 119.021 171.801 119.04 171.786C119.06 171.771 119.084 171.764 119.108 171.765Z" fill="#263238"/>
<path id="Vector_44" d="M117.872 172.245C119.472 172.225 121.32 172.797 122.312 174.109C122.348 174.157 122.276 174.213 122.228 174.189C120.829 173.448 119.354 172.861 117.828 172.441C117.802 172.435 117.779 172.419 117.765 172.396C117.751 172.374 117.746 172.347 117.752 172.321C117.758 172.295 117.774 172.272 117.796 172.258C117.819 172.244 117.846 172.239 117.872 172.245Z" fill="#263238"/>
<path id="Vector_45" d="M116.636 172.72C118.236 172.72 120.088 173.272 121.076 174.584C121.112 174.632 121.04 174.688 120.992 174.664C119.593 173.923 118.118 173.337 116.592 172.916C116.566 172.91 116.543 172.894 116.529 172.872C116.515 172.849 116.51 172.822 116.516 172.796C116.522 172.77 116.538 172.748 116.56 172.733C116.583 172.719 116.61 172.714 116.636 172.72Z" fill="#263238"/>
<path id="Vector_46" d="M134.4 174.509C136.196 174.509 136.18 177.309 134.4 177.309C132.62 177.309 132.592 174.497 134.4 174.509Z" fill="#263238"/>
<path id="Vector_47" d="M118.752 169.361C119.608 170.477 120.92 171.185 122.056 171.973C122.083 171.988 122.112 171.996 122.143 171.998C122.174 171.999 122.204 171.994 122.232 171.981C122.26 171.969 122.285 171.95 122.304 171.926C122.324 171.902 122.337 171.874 122.344 171.845C122.35 171.846 122.357 171.846 122.363 171.844C122.369 171.842 122.375 171.839 122.379 171.835C122.384 171.831 122.388 171.825 122.39 171.819C122.392 171.813 122.393 171.807 122.392 171.801C122.281 170.334 121.786 168.923 120.956 167.709C120.46 167.009 119.444 166.353 118.632 167.021C117.82 167.689 118.248 168.713 118.752 169.361ZM118.68 168.037C118.848 166.301 120.412 167.637 120.756 168.169C120.973 168.515 121.166 168.876 121.336 169.249C121.673 170.024 121.97 170.815 122.228 171.621C121.696 171.197 121.128 170.821 120.58 170.421C119.928 169.945 118.592 168.997 118.68 168.037Z" fill="#263238"/>
<path id="Vector_48" d="M128.072 170.801C127.952 169.757 126.76 169.529 125.92 169.685C124.481 169.987 123.146 170.66 122.048 171.637C122.042 171.641 122.037 171.646 122.034 171.652C122.031 171.658 122.029 171.664 122.029 171.671C122.029 171.678 122.031 171.685 122.034 171.691C122.037 171.696 122.042 171.701 122.048 171.705C122.031 171.731 122.021 171.76 122.018 171.791C122.014 171.822 122.019 171.853 122.03 171.881C122.042 171.91 122.06 171.935 122.083 171.955C122.106 171.976 122.134 171.99 122.164 171.997C123.532 172.213 124.964 172.617 126.36 172.397C127.176 172.285 128.188 171.789 128.072 170.801ZM124.308 171.901C123.632 171.813 122.968 171.689 122.308 171.625C123.064 171.245 123.8 170.825 124.592 170.533C124.973 170.382 125.363 170.256 125.76 170.157C126.376 170.017 128.432 170.133 127.36 171.501C126.732 172.253 125.112 172.001 124.308 171.901Z" fill="#263238"/>
<path id="Vector_49" d="M162.656 96.7764C162.656 96.7764 144.164 128.232 143.668 130.44C142.908 133.836 138.868 167.348 138.868 167.348L119.628 167.004C119.628 167.004 122.944 137.452 126.084 127.72C128.348 120.708 144.664 97.4524 144.664 97.4524L162.656 96.7764Z" fill="#37474F"/>
<path id="Vector_50" d="M121.384 164.053C124.148 164.033 133.94 163.925 137.616 164.265C137.623 164.265 137.631 164.268 137.636 164.273C137.641 164.278 137.644 164.285 137.644 164.293C137.644 164.3 137.641 164.307 137.636 164.312C137.631 164.318 137.623 164.321 137.616 164.321C136.352 164.501 124.148 164.217 121.384 164.129C121.378 164.131 121.372 164.131 121.365 164.13C121.359 164.129 121.353 164.127 121.348 164.123C121.343 164.119 121.339 164.114 121.336 164.109C121.333 164.103 121.331 164.097 121.331 164.091C121.331 164.084 121.333 164.078 121.336 164.072C121.339 164.067 121.343 164.062 121.348 164.058C121.353 164.054 121.359 164.052 121.365 164.051C121.372 164.05 121.378 164.051 121.384 164.053Z" fill="#263238"/>
<path id="Vector_51" d="M159.5 99.6642C158.3 101.564 157.008 103.424 155.768 105.308C154.528 107.192 153.296 109.08 152.076 110.98C149.641 114.772 147.263 118.599 144.94 122.46C143.814 124.237 142.849 126.111 142.056 128.06C141.334 130.019 140.792 132.039 140.436 134.096C140.056 136.164 139.808 138.248 139.576 140.332C139.325 142.551 139.077 144.77 138.832 146.988C138.325 151.522 137.819 156.063 137.312 160.612C137.248 161.168 137.188 161.728 137.132 162.284C137.132 162.368 137.268 162.384 137.28 162.284C137.844 157.772 138.316 153.248 138.832 148.728L139.6 142C139.836 139.908 140.064 137.816 140.4 135.732C140.7 133.683 141.153 131.658 141.756 129.676C142.415 127.623 143.302 125.649 144.4 123.792C146.628 119.948 148.988 116.168 151.348 112.4C153.708 108.632 156.128 104.8 158.62 101.068C158.924 100.608 159.236 100.148 159.556 99.6962C159.6 99.6602 159.524 99.6282 159.5 99.6642Z" fill="#263238"/>
<path id="Vector_52" d="M146.308 181.729C147.184 181.785 170.816 175.557 171.552 174.773C171.584 174.725 171.604 174.67 171.608 174.613C171.7 173.837 170.492 170.937 169.644 167.221C169.592 166.985 169.148 165.857 168.524 164.333C166.808 160.153 163.748 152.969 163.748 152.969L148.32 156.929L154 168.349L154.768 171.033C154.768 171.033 146.964 177.277 146.252 178.233C145.54 179.189 145.436 181.665 146.308 181.729Z" fill="#EB9481"/>
<path id="Vector_53" d="M146.308 181.728C147.184 181.784 170.816 175.556 171.552 174.772C171.584 174.725 171.604 174.669 171.608 174.612C171.7 173.836 170.492 170.936 169.644 167.22C169.592 166.984 169.148 165.856 168.524 164.332L154.004 168.332L154.772 171.016C154.772 171.016 146.968 177.26 146.256 178.216C145.544 179.172 145.436 181.664 146.308 181.728Z" fill="white"/>
<path id="Vector_54" d="M146.308 181.725C147.184 181.789 170.816 175.557 171.552 174.773C171.832 174.477 171.22 171.281 169.644 167.221L154.772 171.037C154.772 171.037 146.968 177.273 146.256 178.237C145.544 179.201 145.436 181.665 146.308 181.725Z" fill="#0A638A"/>
<path id="Vector_55" d="M146.4 180.717C150.24 179.621 165.832 175.557 169.712 174.761C169.744 174.761 169.748 174.761 169.712 174.789C165.932 175.957 150.308 179.897 146.412 180.789C146.336 180.801 146.32 180.741 146.4 180.717Z" fill="#263238"/>
<path id="Vector_56" d="M147.524 177.004C147.951 176.881 148.398 176.848 148.838 176.908C149.278 176.967 149.701 177.117 150.08 177.348C150.765 177.76 151.266 178.419 151.48 179.188C151.48 179.212 151.44 179.224 151.432 179.188C151.103 178.457 150.545 177.852 149.842 177.464C149.14 177.077 148.33 176.928 147.536 177.04C147.533 177.044 147.53 177.047 147.526 177.049C147.522 177.051 147.517 177.051 147.513 177.051C147.508 177.05 147.504 177.048 147.501 177.046C147.497 177.043 147.495 177.039 147.493 177.035C147.492 177.03 147.492 177.026 147.493 177.021C147.494 177.017 147.496 177.013 147.499 177.01C147.502 177.007 147.506 177.005 147.511 177.004C147.515 177.003 147.52 177.003 147.524 177.004Z" fill="#263238"/>
<path id="Vector_57" d="M153.372 171.808C154.912 171.384 156.848 171.464 158.136 172.48C158.188 172.52 158.136 172.592 158.08 172.58C156.544 172.22 154.974 172.025 153.396 172C153.374 171.997 153.354 171.987 153.338 171.972C153.323 171.956 153.313 171.935 153.31 171.914C153.307 171.892 153.312 171.869 153.323 171.85C153.334 171.831 153.351 171.816 153.372 171.808Z" fill="#263238"/>
<path id="Vector_58" d="M152.3 172.585C153.84 172.161 155.776 172.241 157.064 173.257C157.116 173.297 157.064 173.369 157.004 173.357C155.467 173.004 153.897 172.817 152.32 172.801C152.291 172.803 152.263 172.794 152.241 172.776C152.219 172.758 152.205 172.731 152.202 172.703C152.199 172.674 152.208 172.645 152.227 172.623C152.245 172.601 152.271 172.587 152.3 172.585Z" fill="#263238"/>
<path id="Vector_59" d="M151.224 173.361C152.768 172.937 154.7 173.017 155.992 174.033C156.04 174.073 155.992 174.141 155.932 174.133C154.396 173.773 152.825 173.58 151.248 173.557C151.224 173.556 151.202 173.547 151.184 173.531C151.167 173.515 151.155 173.493 151.152 173.469C151.15 173.446 151.155 173.422 151.168 173.402C151.181 173.382 151.201 173.368 151.224 173.361Z" fill="#263238"/>
<path id="Vector_60" d="M150.152 174.132C151.692 173.712 153.628 173.792 154.916 174.808C154.968 174.848 154.916 174.916 154.86 174.904C153.323 174.548 151.753 174.357 150.176 174.332C150.149 174.336 150.123 174.328 150.102 174.312C150.081 174.295 150.067 174.271 150.064 174.244C150.061 174.218 150.068 174.191 150.085 174.17C150.101 174.149 150.125 174.136 150.152 174.132Z" fill="#263238"/>
<path id="Vector_61" d="M167.776 171.349C169.512 170.901 170.208 173.601 168.468 174.045C166.728 174.489 166.036 171.793 167.776 171.349Z" fill="#263238"/>
<path id="Vector_62" d="M151.34 170.349C152.456 171.209 153.904 171.549 155.2 172.033C155.23 172.041 155.261 172.042 155.291 172.036C155.321 172.03 155.35 172.017 155.374 171.998C155.398 171.979 155.417 171.954 155.43 171.926C155.443 171.898 155.449 171.868 155.448 171.837C155.455 171.837 155.461 171.835 155.467 171.832C155.473 171.829 155.477 171.824 155.481 171.819C155.485 171.813 155.487 171.807 155.487 171.8C155.488 171.794 155.487 171.787 155.484 171.781C155.003 170.389 154.164 169.147 153.052 168.181C152.396 167.633 151.244 167.253 150.628 168.109C150.012 168.965 150.692 169.849 151.34 170.349ZM150.94 169.089C150.66 167.365 152.512 168.265 152.98 168.689C153.279 168.968 153.558 169.268 153.816 169.585C154.341 170.247 154.831 170.936 155.284 171.649C154.66 171.377 154.016 171.161 153.384 170.909C152.624 170.613 151.092 170.037 150.936 169.089H150.94Z" fill="#263238"/>
<path id="Vector_63" d="M160.72 169.369C160.34 168.389 159.12 168.473 158.356 168.841C157.04 169.496 155.919 170.486 155.108 171.713C155.104 171.718 155.101 171.724 155.1 171.73C155.098 171.737 155.099 171.744 155.101 171.75C155.103 171.756 155.106 171.762 155.111 171.767C155.116 171.771 155.122 171.775 155.128 171.777C155.119 171.806 155.117 171.837 155.123 171.867C155.128 171.897 155.14 171.925 155.159 171.95C155.177 171.974 155.201 171.994 155.228 172.008C155.255 172.022 155.285 172.029 155.316 172.029C156.696 171.889 158.184 171.913 159.476 171.357C160.232 171.033 161.084 170.293 160.72 169.369ZM157.36 171.393C156.688 171.477 156.012 171.529 155.36 171.637C155.976 171.059 156.621 170.513 157.292 170.001C157.621 169.758 157.966 169.538 158.324 169.341C158.884 169.045 160.904 168.637 160.2 170.233C159.796 171.117 158.168 171.293 157.36 171.393Z" fill="#263238"/>
<path id="Vector_64" d="M152.944 167.6L170.232 163.064C170.232 163.064 153.68 130.492 153.832 128.244C153.952 126.244 165.956 108.772 166.632 105.5C167.716 100.144 165.108 95.3604 162.58 92.4004L144.7 97.4404C144.7 97.4404 146.124 100.532 148.74 102.484C148.74 102.484 137.504 121.244 137.216 127.42C136.928 133.596 152.944 167.6 152.944 167.6Z" fill="#37474F"/>
<path id="Vector_65" d="M152.616 164.401C155.12 163.685 154.392 163.857 156.908 163.165C158.14 162.829 166.232 160.617 167.432 160.501C167.46 160.501 167.472 160.541 167.432 160.553C166.328 161.049 158.2 163.121 156.964 163.433C154.436 164.073 155.152 163.861 152.616 164.477C152.588 164.481 152.568 164.401 152.616 164.401Z" fill="#263238"/>
<path id="Vector_66" d="M145.968 101.776C147.681 102.412 149.337 103.193 150.916 104.112C150.929 104.119 150.938 104.13 150.943 104.143C150.947 104.157 150.946 104.171 150.94 104.184C150.934 104.197 150.922 104.207 150.909 104.211C150.895 104.216 150.881 104.215 150.868 104.208C149.2 103.48 147.496 102.784 145.872 101.968C145.85 101.954 145.834 101.932 145.827 101.906C145.82 101.88 145.822 101.853 145.834 101.829C145.846 101.805 145.866 101.787 145.891 101.777C145.916 101.767 145.943 101.767 145.968 101.776Z" fill="#263238"/>
<path id="Vector_67" d="M148.068 101.337C148.195 101.651 148.302 101.973 148.388 102.301C148.482 102.557 148.524 102.829 148.512 103.101C148.507 103.11 148.499 103.118 148.49 103.123C148.481 103.128 148.47 103.131 148.46 103.131C148.449 103.131 148.439 103.128 148.43 103.123C148.421 103.118 148.413 103.11 148.408 103.101C148.258 102.862 148.145 102.602 148.072 102.329C147.964 102.029 147.848 101.733 147.752 101.433C147.684 101.241 148 101.145 148.068 101.337Z" fill="#263238"/>
<path id="Vector_68" d="M148.068 99.7166C147.996 99.4406 147.924 99.1686 147.848 98.8926C147.772 98.6166 147.668 98.3326 147.612 98.0446C147.612 98.0006 147.532 98.0206 147.544 98.0446C147.612 98.3206 147.644 98.6086 147.692 98.8886C147.74 99.1686 147.796 99.4486 147.852 99.7246C147.957 100.249 148.091 100.767 148.252 101.277C147.97 101.256 147.697 101.173 147.452 101.033C147.213 100.835 147.043 100.568 146.964 100.269C146.852 99.9566 146.752 99.6406 146.636 99.3326C146.492 98.9949 146.377 98.6457 146.292 98.2886C146.292 98.2406 146.212 98.2606 146.22 98.2886C146.358 99.0427 146.571 99.781 146.856 100.493C146.98 100.773 147.072 101.061 147.348 101.197C147.651 101.325 147.978 101.389 148.308 101.385C148.344 101.385 148.4 101.385 148.392 101.333C148.308 100.821 148.204 100.257 148.068 99.7166Z" fill="#263238"/>
<path id="Vector_69" d="M148.364 103.109C147.684 104.337 146.908 105.509 146.18 106.709C145.452 107.909 144.796 109.077 144.132 110.277C142.796 112.701 141.556 115.189 140.424 117.717C139.864 118.967 139.331 120.233 138.824 121.513C138.297 122.786 137.863 124.096 137.524 125.433C137.206 126.766 137.146 128.148 137.348 129.505C137.601 130.895 137.959 132.264 138.42 133.601C139.347 136.661 140.474 139.657 141.796 142.569C141.84 142.665 142 142.593 141.964 142.493C141.02 139.829 140.044 137.173 139.192 134.493C138.372 131.877 137.396 129.165 137.848 126.385C138.1 125.051 138.481 123.745 138.984 122.485C139.469 121.189 139.987 119.907 140.536 118.641C141.624 116.141 142.84 113.713 144.088 111.293C144.784 109.937 145.516 108.597 146.224 107.245C146.932 105.893 147.628 104.493 148.424 103.181C148.448 103.105 148.4 103.073 148.364 103.109Z" fill="#263238"/>
<path id="Vector_70" d="M161.384 100.484C161.06 100.432 160.584 100.544 159.188 100.448C158.8 100.414 158.415 100.351 158.036 100.26C157.652 100.2 157.286 100.052 156.968 99.8284C156.461 99.3487 156.047 98.779 155.748 98.1484C155.374 97.4983 155.087 96.8016 154.896 96.0764C154.896 96.0324 154.82 96.0524 154.828 96.0964C154.904 96.4964 154.944 96.8964 155.052 97.3204C155.155 97.7013 155.289 98.0732 155.452 98.4324C155.709 99.1431 156.139 99.7783 156.704 100.28C157.336 100.756 158.22 100.844 158.984 100.9C159.428 100.932 161.168 100.9 161.384 100.636C161.448 100.592 161.444 100.496 161.384 100.484Z" fill="#263238"/>
<path id="Vector_71" d="M165.94 159.344C163.759 154.912 161.625 150.452 159.54 145.964C157.455 141.476 155.431 136.955 153.468 132.4C152.925 131.331 152.492 130.209 152.176 129.052C151.908 127.784 152.3 126.652 152.836 125.504C153.833 123.423 154.948 121.399 156.176 119.444C157.376 117.476 158.672 115.552 159.94 113.62C161.251 111.728 162.453 109.762 163.54 107.732C164.524 105.768 165.072 103.676 164.792 101.476C164.512 99.2763 163.564 97.2443 162.552 95.3123C162.284 94.8043 162.008 94.3003 161.752 93.7883C161.732 93.7523 161.672 93.7883 161.696 93.8243C162.824 95.8483 163.908 97.9723 164.436 100.224C164.708 101.347 164.792 102.507 164.684 103.656C164.543 104.817 164.217 105.948 163.716 107.004C162.776 109.068 161.464 110.972 160.228 112.864C158.992 114.756 157.676 116.724 156.444 118.684C155.192 120.646 154.043 122.672 153 124.752C152.544 125.684 152.044 126.656 151.932 127.7C151.812 128.848 152.224 129.944 152.668 130.98C154.588 135.484 156.612 139.952 158.668 144.396C160.724 148.84 162.856 153.3 165.02 157.716L165.82 159.384C165.872 159.476 165.972 159.412 165.94 159.344Z" fill="#263238"/>
<path id="Vector_72" d="M144.304 59.0407C144.704 57.2127 146.736 53.0767 150.748 53.8847C156.476 55.0407 157.304 66.0766 160.156 69.5166C165.32 75.7486 165.488 81.9166 161.256 82.9046C156.512 84.0086 151.896 78.9046 152.056 67.9046C152.164 61.0166 150.224 57.9646 148.856 58.1686C147.488 58.3726 146.732 60.1126 146.732 60.1126L144.304 59.0407Z" fill="#263238"/>
<path id="Vector_73" d="M144.496 58.3564C144.779 57.5037 145.165 56.6885 145.644 55.9284C146.125 55.1496 146.762 54.4794 147.516 53.9604C148.296 53.4332 149.223 53.1645 150.164 53.1924C151.097 53.2206 152.01 53.4745 152.824 53.9324C153.617 54.4071 154.3 55.0469 154.824 55.8084C155.342 56.5566 155.773 57.3619 156.108 58.2084C156.743 59.8867 157.189 61.6309 157.436 63.4084C157 61.6899 156.436 60.0065 155.748 58.3724C155.391 57.5734 154.953 56.8134 154.44 56.1044C153.942 55.4046 153.301 54.8184 152.56 54.3844C151.818 53.9612 150.985 53.7212 150.132 53.6844C149.287 53.6449 148.45 53.8624 147.732 54.3084C146.995 54.7731 146.355 55.3762 145.848 56.0844C145.583 56.438 145.339 56.8066 145.116 57.1884C144.892 57.5564 144.688 57.9524 144.496 58.3564Z" fill="#263238"/>
<path id="Vector_74" d="M152.036 64.1084C152.096 65.2004 152.036 66.2964 152.012 67.3884C151.988 68.4804 151.944 69.5684 151.94 70.6564C151.936 71.7444 151.972 72.8284 152.084 73.9044C152.175 74.9755 152.371 76.0352 152.668 77.0684C152.949 78.095 153.423 79.0587 154.064 79.9084C154.736 80.7355 155.549 81.4382 156.464 81.9844C157.38 82.5406 158.415 82.8723 159.484 82.9524C160.019 82.9937 160.557 82.9655 161.084 82.8684C161.355 82.8177 161.622 82.7482 161.884 82.6604C162.144 82.5834 162.392 82.4688 162.62 82.3204C162.174 82.6451 161.666 82.8752 161.128 82.9964C160.591 83.1362 160.039 83.2048 159.484 83.2004C158.924 83.1902 158.368 83.1109 157.828 82.9644C157.289 82.8129 156.77 82.5995 156.28 82.3284C155.789 82.0594 155.326 81.7433 154.896 81.3844L154.58 81.1124L154.276 80.8284C154.07 80.6341 153.877 80.4256 153.7 80.2044C153.012 79.3122 152.502 78.2966 152.196 77.2124C151.642 75.0712 151.429 72.856 151.564 70.6484C151.596 69.5524 151.68 68.4604 151.776 67.3724C151.872 66.2844 152 65.2004 152.036 64.1084Z" fill="#263238"/>
<path id="Vector_75" d="M143.976 59.0729C143.912 58.5649 144.22 57.8729 144.54 57.7489C144.86 57.6249 147.412 58.4449 147.68 59.0569C147.948 59.6689 146.916 60.3209 146.916 60.3209L143.976 59.0729Z" fill="#0A638A"/>
<path id="Vector_76" d="M147.032 77.0889C145.46 79.3329 134.092 88.6168 127.892 88.9608C125.092 89.1128 114.14 87.9208 111.7 86.9168C108.704 85.6848 114.628 78.2649 116.5 78.5809C118.844 78.9809 127.156 79.8569 128.812 79.9009C131.468 79.9689 139.612 75.5009 145.096 74.3369C147.932 73.7409 148.248 75.3609 147.032 77.0889Z" fill="#EB9481"/>
<path id="Vector_77" d="M146.908 77.5122C145.172 80.5402 139.044 85.7322 139.044 85.7322L138 83.8042L134.544 77.4402C134.544 77.4402 140.352 75.1282 144.204 74.0042C144.656 73.8654 145.119 73.7637 145.588 73.7002C148.076 73.3802 148.4 74.9122 146.908 77.5122Z" fill="#DBDBDB"/>
<path id="Vector_78" d="M146.908 77.5128C145.172 80.5408 139.044 85.7328 139.044 85.7328L138 83.8048L137.288 82.4928L134.54 77.4448C134.54 77.4448 140.352 75.1248 144.204 74.0008C144.657 73.8658 145.12 73.7656 145.588 73.7008C145.637 73.6971 145.687 73.6971 145.736 73.7008C148.088 73.4448 148.376 74.9648 146.908 77.5128Z" fill="#DBDBDB"/>
<path id="Vector_79" d="M139.664 75.8769C139.797 76.429 139.797 77.0048 139.664 77.5569C139.531 77.0049 139.531 76.429 139.664 75.8769ZM138.02 79.1729C137.738 79.1684 137.457 79.202 137.184 79.2729C137.457 79.3419 137.738 79.3755 138.02 79.3729C138.303 79.3752 138.585 79.3416 138.86 79.2729C138.586 79.2023 138.303 79.1686 138.02 79.1729ZM146.516 74.4769C146.233 74.4727 145.95 74.5063 145.676 74.5769C145.95 74.6476 146.233 74.6812 146.516 74.6769C146.798 74.679 147.079 74.6454 147.352 74.5769C147.079 74.5085 146.798 74.4749 146.516 74.4769ZM143.244 78.6529C143.442 78.8543 143.665 79.0291 143.908 79.1729C143.764 78.93 143.589 78.7068 143.388 78.5089C143.189 78.3085 142.966 78.1338 142.724 77.9889C142.869 78.2311 143.044 78.4542 143.244 78.6529ZM140.016 82.6529C140.214 82.8555 140.437 83.0316 140.68 83.1769C140.537 82.9331 140.362 82.7098 140.16 82.5129C139.962 82.3103 139.739 82.1342 139.496 81.9889C139.634 82.2316 139.803 82.4548 140 82.6529H140.016Z" fill="white"/>
<path id="Vector_80" d="M140.112 84.3127C139.532 83.1407 136.972 78.4207 136.352 77.4367C136.308 77.3687 136.256 77.3767 136.288 77.4367C137.422 79.795 138.682 82.0904 140.064 84.3127C140.08 84.3607 140.128 84.3447 140.112 84.3127Z" fill="#263238"/>
<path id="Vector_81" d="M146.908 77.5124C145.172 80.5404 139.044 85.7324 139.044 85.7324L138 83.8044L137.288 82.4924C140.612 79.2124 144.616 75.1764 145.736 73.6924C148.088 73.4444 148.376 74.9644 146.908 77.5124Z" fill="#A6A6A6"/>
<path id="Vector_82" d="M141.24 91.4603L142.148 101.46C143.371 101.404 144.59 101.281 145.8 101.092C148.991 100.614 152.152 99.9553 155.268 99.1203C158.36 98.3203 161.984 97.2163 166.128 95.7443C166.128 95.7443 156.756 78.8403 150.288 74.1763C150.14 74.0683 149.996 73.9683 149.848 73.8763C149.82 73.8523 149.792 73.8403 149.764 73.8203C146.824 71.9603 144.164 73.4203 142.692 75.4923C142.32 76.0123 138.72 84.1963 138.9 86.9403C139.064 89.3523 141.24 91.4603 141.24 91.4603Z" fill="#DBDBDB"/>
<path id="Vector_83" d="M146.44 80.7562C146.511 81.0291 146.545 81.3103 146.54 81.5922C146.544 81.8754 146.511 82.1579 146.44 82.4322C146.369 82.1579 146.336 81.8754 146.34 81.5922C146.337 81.3104 146.371 81.0295 146.44 80.7562ZM148.62 91.2282C148.618 91.5113 148.651 91.7936 148.72 92.0682C148.793 91.7943 148.826 91.5115 148.82 91.2282C148.824 90.945 148.791 90.6625 148.72 90.3882C148.651 90.6629 148.618 90.9451 148.62 91.2282ZM155.6 85.2682C155.596 85.5514 155.629 85.8339 155.7 86.1082C155.833 85.5562 155.833 84.9803 155.7 84.4282C155.629 84.7025 155.596 84.985 155.6 85.2682ZM142.8 89.9522C142.796 90.2354 142.829 90.5179 142.9 90.7922C143.033 90.2402 143.033 89.6643 142.9 89.1122C142.829 89.3865 142.796 89.669 142.8 89.9522ZM150.864 82.5802C150.581 82.5779 150.299 82.6115 150.024 82.6802C150.576 82.8135 151.152 82.8135 151.704 82.6802C151.431 82.6118 151.15 82.5782 150.868 82.5802H150.864ZM156.816 90.0402C156.533 90.0339 156.25 90.0676 155.976 90.1402C156.528 90.2735 157.104 90.2735 157.656 90.1402C157.383 90.0699 157.102 90.0363 156.82 90.0402H156.816ZM147.768 95.9522C147.486 95.9477 147.205 95.9813 146.932 96.0522C147.205 96.1231 147.486 96.1568 147.768 96.1522C148.051 96.1565 148.334 96.1229 148.608 96.0522C148.335 95.9839 148.054 95.9503 147.772 95.9522H147.768ZM158.308 94.8002C158.026 94.7979 157.745 94.8316 157.472 94.9002C158.023 95.0336 158.597 95.0336 159.148 94.9002C158.873 94.8315 158.591 94.7979 158.308 94.8002ZM146.516 74.4642C146.233 74.46 145.95 74.4936 145.676 74.5642C145.95 74.6349 146.233 74.6685 146.516 74.6642C146.798 74.6663 147.079 74.6327 147.352 74.5642C147.078 74.4998 146.797 74.4702 146.516 74.4762V74.4642ZM150.796 76.3162C150.994 76.5188 151.217 76.695 151.46 76.8402C151.318 76.5958 151.143 76.3723 150.94 76.1762C150.742 75.9736 150.519 75.7975 150.276 75.6522C150.42 75.8996 150.596 76.1269 150.8 76.3282L150.796 76.3162ZM159.536 85.6722C159.734 85.8748 159.957 86.051 160.2 86.1962C160.057 85.9526 159.882 85.7293 159.68 85.5322C159.481 85.3305 159.258 85.1545 159.016 85.0082C159.159 85.2554 159.334 85.4826 159.536 85.6842V85.6722ZM145.56 86.6722C145.758 86.8748 145.981 87.051 146.224 87.1962C145.925 86.7063 145.514 86.2949 145.024 85.9962C145.171 86.2484 145.351 86.4798 145.56 86.6842V86.6722ZM153.6 93.4442C153.798 93.6468 154.021 93.823 154.264 93.9682C153.965 93.4783 153.554 93.0669 153.064 92.7682C153.212 93.0162 153.392 93.2435 153.6 93.4442ZM143.264 78.6442C143.462 78.8456 143.685 79.0204 143.928 79.1642C143.784 78.9213 143.609 78.6981 143.408 78.5002C143.209 78.2998 142.986 78.1251 142.744 77.9802C142.882 78.2241 143.05 78.4499 143.244 78.6522L143.264 78.6442ZM142.696 83.9002C142.898 83.7016 143.074 83.4786 143.22 83.2362C142.976 83.3788 142.753 83.5537 142.556 83.7562C142.353 83.954 142.177 84.1772 142.032 84.4202C142.267 84.2762 142.483 84.1043 142.676 83.9082L142.696 83.9002ZM161.676 91.0442C161.879 90.8474 162.053 90.624 162.196 90.3802C161.705 90.6774 161.293 91.0891 160.996 91.5802C161.238 91.4334 161.46 91.256 161.656 91.0522L161.676 91.0442ZM143.732 93.9082C143.933 93.7103 144.108 93.4871 144.252 93.2442C143.761 93.5414 143.349 93.9531 143.052 94.4442C143.294 94.2974 143.516 94.12 143.712 93.9162L143.732 93.9082ZM154.444 80.1202C154.647 79.9224 154.823 79.6992 154.968 79.4562C154.724 79.6005 154.501 79.7767 154.304 79.9802C154.101 80.178 153.925 80.4012 153.78 80.6442C154.016 80.5 154.232 80.3267 154.424 80.1282L154.444 80.1202ZM151.788 98.0802C151.992 97.8833 152.168 97.66 152.312 97.4162C152.068 97.5605 151.845 97.7367 151.648 97.9402C151.445 98.138 151.269 98.3612 151.124 98.6042C151.36 98.46 151.576 98.2867 151.768 98.0882L151.788 98.0802ZM151.788 87.2802C151.993 87.0843 152.169 86.8608 152.312 86.6162C151.822 86.9149 151.411 87.3263 151.112 87.8162C151.357 87.667 151.58 87.4854 151.776 87.2762L151.788 87.2802Z" fill="white"/>
<path id="Vector_84" d="M147.928 73.6483C147.872 74.0483 146.28 76.6483 144.544 76.7163C143.976 76.7363 143.724 73.6563 143.724 73.6563L143.652 73.4323L142.664 70.3083L146.2 67.6003L146.716 67.2363C146.716 67.2363 146.928 68.1123 147.184 69.2003L147.22 69.3563C147.22 69.4163 147.252 69.4723 147.264 69.5323L147.384 70.0243C147.412 70.1523 147.44 70.2763 147.464 70.4243L147.548 70.8243C147.739 71.7559 147.866 72.6994 147.928 73.6483Z" fill="#EB9481"/>
<path id="Vector_85" d="M147.2 69.2003C146.956 70.1233 146.513 70.9819 145.903 71.7162C145.293 72.4506 144.531 73.0431 143.668 73.4523L142.68 70.3283L146.2 67.6003L146.716 67.2363C146.716 67.2363 146.928 68.0923 147.2 69.2003Z" fill="#263238"/>
<path id="Vector_86" d="M138.28 65.6004C138.252 71.3524 141.696 72.0203 142.936 72.0243C144.06 72.0243 147.896 71.9003 148.536 66.1803C149.176 60.4603 146.492 58.6324 143.92 58.4844C141.348 58.3364 138.308 59.8364 138.28 65.6004Z" fill="#EB9481"/>
<path id="Vector_87" d="M148.204 66.5685C147.264 66.6645 147.004 64.6925 147.004 64.6925C147.004 64.6925 145.088 64.7485 144.388 62.0045C144.462 62.83 144.776 63.6156 145.292 64.2645C145.292 64.2645 141.896 64.0005 140.4 61.2005C140.4 61.2005 141.004 62.6285 141.548 63.1285C140.684 62.8849 139.928 62.358 139.4 61.6325C139.4 61.6325 138.848 63.2805 138.404 63.7405C138.404 63.7405 137.748 60.8445 138.952 59.3405C141.488 56.1405 145.652 58.9405 145.652 58.9405C145.652 58.9405 147.98 59.2925 148.812 61.0365C150.096 63.7045 148.204 66.5685 148.204 66.5685Z" fill="#263238"/>
<path id="Vector_88" d="M147.6 66.6044C147.6 66.6044 148.704 64.7124 149.556 65.0924C150.408 65.4724 149.676 68.1444 148.756 68.5764C148.642 68.6405 148.517 68.6809 148.387 68.6954C148.257 68.7099 148.126 68.6982 148.001 68.6608C147.876 68.6235 147.76 68.5614 147.659 68.4782C147.559 68.3949 147.476 68.2923 147.416 68.1764L147.6 66.6044Z" fill="#EB9481"/>
<path id="Vector_89" d="M139 64.4362C139.135 64.4127 139.269 64.3807 139.4 64.3402C139.541 64.3244 139.673 64.2625 139.776 64.1642C139.804 64.1283 139.82 64.0839 139.82 64.0382C139.82 63.9925 139.804 63.9482 139.776 63.9122C139.708 63.8523 139.625 63.8115 139.535 63.7939C139.446 63.7763 139.354 63.7827 139.268 63.8122C139.085 63.847 138.921 63.9481 138.808 64.0962C138.786 64.13 138.774 64.1691 138.772 64.2094C138.771 64.2496 138.781 64.2895 138.801 64.3245C138.821 64.3596 138.85 64.3886 138.885 64.4083C138.92 64.428 138.96 64.4376 139 64.4362Z" fill="#263238"/>
<path id="Vector_90" d="M142.752 64.8841C142.617 64.8707 142.484 64.8493 142.352 64.8201C142.206 64.8173 142.065 64.7651 141.952 64.6721C141.923 64.6364 141.907 64.592 141.907 64.5461C141.907 64.5002 141.923 64.4557 141.952 64.4201C142.015 64.3546 142.094 64.3074 142.181 64.2834C142.269 64.2595 142.361 64.2597 142.448 64.2841C142.633 64.3046 142.805 64.3912 142.932 64.5281C142.958 64.561 142.974 64.6007 142.978 64.6424C142.982 64.6841 142.974 64.7261 142.955 64.7635C142.937 64.8009 142.907 64.8321 142.871 64.8535C142.835 64.8748 142.794 64.8855 142.752 64.8841Z" fill="#263238"/>
<path id="Vector_91" d="M142 66.0605C142 66.0605 142.028 66.0606 142.028 66.0966C142.028 66.4966 142.08 66.9445 142.428 67.0685V67.0925C142 67.0365 141.916 66.4365 142 66.0605Z" fill="#263238"/>
<path id="Vector_92" d="M142.332 65.6447C142.964 65.5847 143.036 66.8447 142.448 66.9127C141.86 66.9807 141.8 65.6927 142.332 65.6447Z" fill="#263238"/>
<path id="Vector_93" d="M142.584 65.697C142.7 65.765 142.816 65.885 142.952 65.893C143.088 65.901 143.216 65.757 143.312 65.625H143.332C143.332 65.869 143.268 66.125 143.012 66.177C142.756 66.229 142.612 66.017 142.516 65.777C142.504 65.741 142.54 65.673 142.584 65.697Z" fill="#263238"/>
<path id="Vector_94" d="M139.796 66.0801C139.796 66.0801 139.764 66.1001 139.768 66.1161C139.804 66.5161 139.768 66.9681 139.432 67.1201C139.868 67.0521 139.892 66.4481 139.796 66.0801Z" fill="#263238"/>
<path id="Vector_95" d="M139.416 65.6924C138.78 65.6924 138.812 66.9564 139.416 66.9644C140.02 66.9724 139.952 65.7004 139.416 65.6924Z" fill="#263238"/>
<path id="Vector_96" d="M139.156 65.7804C139.056 65.8524 138.96 65.9764 138.84 65.9884C138.72 66.0004 138.592 65.8644 138.5 65.7324H138.48C138.48 65.9764 138.568 66.2284 138.804 66.2684C139.04 66.3084 139.168 66.0924 139.204 65.8484C139.232 65.8204 139.2 65.7524 139.156 65.7804Z" fill="#263238"/>
<path id="Vector_97" d="M140.456 67.8245C140.456 67.8245 140.4 68.4005 140.4 68.6925C140.938 68.6761 141.477 68.7326 142 68.8605C142.124 68.8965 142.116 68.7925 141.976 68.7165C141.559 68.4918 141.084 68.3957 140.612 68.4405C140.592 68.3645 140.716 67.5325 140.672 67.5325C140.457 67.5594 140.247 67.616 140.048 67.7005C140.128 66.4645 140.408 65.2485 140.468 64.0165C140.468 64.0069 140.464 63.9978 140.457 63.991C140.451 63.9843 140.442 63.9805 140.432 63.9805C140.422 63.9805 140.413 63.9843 140.407 63.991C140.4 63.9978 140.396 64.0069 140.396 64.0165C140.058 65.3072 139.849 66.6284 139.772 67.9605C139.784 68.1085 140.348 67.8765 140.456 67.8245Z" fill="#263238"/>
<path id="Vector_98" d="M141.052 68.693C141.253 68.9564 141.533 69.1474 141.852 69.237C142.336 69.285 142.368 68.837 141.828 68.633C141.569 68.5816 141.3 68.6024 141.052 68.693Z" fill="#263238"/>
<path id="Vector_99" d="M141.86 69.2365C141.678 69.2059 141.508 69.1256 141.368 69.0045C141.456 68.8485 141.68 68.6725 142.208 68.9245C142.292 69.1085 142.168 69.2685 141.86 69.2365Z" fill="#FF99BA"/>
<path id="Vector_100" d="M147.084 72.9609C147.788 72.9609 148.972 73.1369 150.572 74.3529C150.572 74.3529 147.236 77.0369 144.132 77.0369C143.024 77.0369 142.692 75.4889 142.692 75.4889C142.692 75.4889 144.184 72.9849 147.084 72.9609Z" fill="#EB9481"/>
<path id="Vector_101" d="M199.784 188.129H186.716C177.22 188.129 171.412 181.565 170.368 169.649C169.852 163.773 169.536 156.661 169.204 149.133C168.18 126.001 166.776 94.3326 157.772 94.3326H147.424V91.9326H157.772C169.068 91.9326 170.356 120.961 171.6 149.033C171.932 156.537 172.248 163.625 172.76 169.433C173.412 176.865 176.36 185.725 186.716 185.725H199.784V188.129Z" fill="#0A638A"/>
<path id="Vector_102" opacity="0.2" d="M155.024 91.9248L154.512 94.3248H147.424V91.9248H155.024Z" fill="black"/>
<path id="Vector_103" d="M127.92 78.7607H123.736V107.997H127.92V78.7607Z" fill="#0A638A"/>
<path id="Vector_104" d="M123.74 80.9209H107.832V105.537H123.74V80.9209Z" fill="#0A638A"/>
<path id="Vector_105" opacity="0.2" d="M123.736 80.9248V105.541H119.784L118.012 80.9248H123.736Z" fill="black"/>
<path id="Vector_106" d="M95.624 85.3408H107.828V89.0208H95.624C95.206 89.0208 94.8051 88.8548 94.5096 88.5592C94.214 88.2637 94.048 87.8628 94.048 87.4448V86.9208C94.0475 86.7135 94.0878 86.5082 94.1668 86.3165C94.2458 86.1248 94.3618 85.9506 94.5082 85.8038C94.6546 85.6571 94.8285 85.5406 95.0199 85.4612C95.2114 85.3817 95.4167 85.3408 95.624 85.3408Z" fill="#DBDBDB"/>
<path id="Vector_107" d="M107.828 85.3408H103.544V89.0168H107.828V85.3408Z" fill="#A6A6A6"/>
<path id="Vector_108" d="M95.624 97.4404H107.828V101.12H95.624C95.206 101.12 94.8051 100.954 94.5096 100.659C94.214 100.363 94.048 99.9624 94.048 99.5444V99.0204C94.0475 98.8131 94.0878 98.6078 94.1668 98.4161C94.2458 98.2244 94.3618 98.0502 94.5082 97.9034C94.6546 97.7567 94.8285 97.6402 95.0199 97.5608C95.2114 97.4813 95.4167 97.4404 95.624 97.4404Z" fill="#DBDBDB"/>
<path id="Vector_109" d="M107.828 97.4404H103.544V101.116H107.828V97.4404Z" fill="#A6A6A6"/>
<path id="Vector_110" d="M152.644 90.8809H140.216V95.7889H152.644V90.8809Z" fill="#0A638A"/>
<path id="Vector_111" d="M152.644 90.8848H140.216V95.7928H152.644V90.8848Z" fill="#0A638A"/>
<path id="Vector_112" opacity="0.2" d="M144.58 90.8848L144.172 95.7928H140.216V90.8848H144.58Z" fill="black"/>
<path id="Vector_113" d="M127.92 81.8486H137.756C138.408 81.8486 139.034 82.1078 139.495 82.5692C139.957 83.0305 140.216 83.6562 140.216 84.3086V102.153C140.216 102.805 139.957 103.431 139.495 103.892C139.034 104.353 138.408 104.613 137.756 104.613H127.92V81.8486Z" fill="#0A638A"/>
<path id="Vector_114" opacity="0.2" d="M133.152 81.8486L131.38 104.613H127.924V81.8486H133.152Z" fill="black"/>
<g id="Group" opacity="0.2">
<path id="Vector_115" d="M132.236 86.4482H131.452V100.008H132.236V86.4482Z" fill="black"/>
<path id="Vector_116" d="M134.46 86.4482H133.676V100.008H134.46V86.4482Z" fill="black"/>
<path id="Vector_117" d="M136.684 86.4482H135.9V100.008H136.684V86.4482Z" fill="black"/>
</g>
<path id="Vector_118" d="M151.492 77.1487C152.868 81.0087 150.896 95.1487 148.564 98.1447C145.1 102.585 138.256 106.669 135.64 107.945C134.496 108.501 129.372 100.309 130.488 99.5447C132.888 97.9007 140.532 93.9767 141.18 93.1967C141.828 92.4167 145.316 84.9247 146.712 80.7127C148.588 75.0567 150.8 75.2007 151.492 77.1487Z" fill="#EB9481"/>
<path id="Vector_119" d="M135.632 107.968C132.004 110.04 124.784 109.736 123.8 109.436L122.528 109.036C121.012 108.608 120.604 107.772 120.604 107.772C120.604 107.772 118.708 107.796 118.5 106.652C118.268 105.368 120.976 105.584 122.54 104.792C126.14 102.98 130.708 99.3965 131.688 98.7725L135.632 107.968Z" fill="#EB9481"/>
<path id="Vector_120" d="M127.632 105.536C126.59 106.082 125.512 106.554 124.404 106.948C123.168 107.307 121.907 107.574 120.632 107.748C120.626 107.751 120.621 107.755 120.617 107.76C120.613 107.765 120.611 107.772 120.611 107.778C120.611 107.785 120.613 107.791 120.617 107.797C120.621 107.802 120.626 107.806 120.632 107.808C123.135 107.74 125.571 106.988 127.676 105.632C127.728 105.6 127.684 105.512 127.632 105.536Z" fill="#263238"/>
<path id="Vector_121" d="M129.04 107.541C127.976 107.981 126.1 108.741 122.524 109.005C122.524 109.005 122.524 109.025 122.524 109.029C124.795 109.186 127.065 108.708 129.08 107.649C129.144 107.601 129.112 107.513 129.04 107.541Z" fill="#263238"/>
<path id="Vector_122" d="M126.72 102.34C127.092 101.94 126.872 101.724 125.888 101.9C124.904 102.076 121.164 103.62 120.736 102.272C120.308 100.924 125.62 98.8204 127.28 98.6484C128.78 98.5708 130.283 98.615 131.776 98.7804C130.824 99.3964 128.568 101.108 126.72 102.34Z" fill="#EB9481"/>
<path id="Vector_123" d="M147.632 78.1201C150.052 73.0281 152.26 74.3761 152.472 79.4121C152.543 82.9093 152.386 86.4074 152 89.8841L143.228 87.3721C143.228 87.3721 146.084 81.3801 147.632 78.1201Z" fill="#DBDBDB"/>
<path id="Vector_124" d="M149.816 75.1523C150.306 75.451 150.717 75.8624 151.016 76.3523C150.526 76.0537 150.115 75.6423 149.816 75.1523ZM146.34 81.6003C146.336 81.8835 146.369 82.1661 146.44 82.4403C146.511 82.1661 146.544 81.8835 146.54 81.6003C146.545 81.3184 146.511 81.0372 146.44 80.7643C146.371 81.0376 146.337 81.3185 146.34 81.6003ZM150.868 82.5883C150.585 82.586 150.303 82.6196 150.028 82.6883C150.58 82.8216 151.156 82.8216 151.708 82.6883C151.434 82.6169 151.151 82.5806 150.868 82.5803V82.5883ZM145.56 86.6843C145.758 86.8869 145.981 87.0631 146.224 87.2083C145.925 86.7184 145.514 86.307 145.024 86.0083C145.172 86.2563 145.352 86.4836 145.56 86.6843ZM151.776 87.2763C151.981 87.0804 152.157 86.857 152.3 86.6123C151.81 86.911 151.399 87.3224 151.1 87.8123C151.349 87.6653 151.576 87.485 151.776 87.2763Z" fill="white"/>
<path id="Vector_125" d="M146.8 79.6731C146.472 80.3411 146.128 80.9971 145.784 81.6731C145.843 81.3611 145.891 81.0451 145.928 80.7251H145.904C145.856 80.9731 145.796 81.2211 145.748 81.4691C145.728 81.5891 145.704 81.7091 145.68 81.8291C145.68 81.8531 145.68 81.8771 145.68 81.9051C145.412 82.4171 145.148 82.9331 144.88 83.4531C144.576 84.0771 144.292 84.7051 144.004 85.3331C143.716 85.9611 143.448 86.7291 143.124 87.3651C143.4 87.4799 143.687 87.5657 143.98 87.6211C144.056 87.6491 144.096 87.5731 144.016 87.5611C143.936 87.5491 143.28 87.2891 143.272 87.2851C143.56 86.6491 143.916 86.0491 144.22 85.4251C144.524 84.8011 144.836 84.1851 145.128 83.5571C145.72 82.2851 146.24 80.9771 146.828 79.7011C146.828 79.6691 146.8 79.6571 146.8 79.6731Z" fill="#263238"/>
<path id="Vector_126" d="M152.836 82.7044C152.756 82.9644 152.664 83.2244 152.596 83.5044C152.572 83.6164 152.544 83.7244 152.516 83.8364C152.548 82.9244 152.577 82.0151 152.604 81.1084C152.48 82.5964 152.352 84.0804 152.256 85.5684C152.117 86.9934 152.051 88.4246 152.06 89.8564C151.797 89.7941 151.53 89.7526 151.26 89.7324C151.551 89.856 151.856 89.9433 152.168 89.9924C152.388 88.5524 152.404 86.9604 152.476 85.5124C152.496 85.1124 152.508 84.7124 152.524 84.2844C152.572 84.0324 152.644 83.7844 152.712 83.5364C152.78 83.2884 152.832 83.0004 152.888 82.7364C152.868 82.6964 152.84 82.6884 152.836 82.7044Z" fill="#263238"/>
<path id="Vector_127" d="M151.644 88.5568C150.408 88.1168 145.288 86.5008 144.16 86.2248C144.08 86.2048 144.048 86.2488 144.128 86.2768C146.582 87.1887 149.084 87.9646 151.624 88.6008C151.656 88.6128 151.676 88.5648 151.644 88.5568Z" fill="#263238"/>
<path id="Vector_128" d="M108.64 87.2009C109.84 87.5689 109.596 85.9289 109.596 85.9289C109.596 85.9289 110.536 88.2009 111.932 88.1009C113.328 88.0008 112.896 86.0289 112.872 85.8849C112.92 86.0049 113.84 88.0688 115.232 87.8248C116.624 87.5808 115.956 85.6529 115.908 85.5329C115.992 85.6289 117.108 86.9049 118.132 86.4769C119.876 85.7409 117.092 82.3969 117.296 80.8769L119.748 80.9488C119.829 80.9411 119.909 80.929 119.988 80.9128L120.08 79.6608C119.296 79.3428 118.539 78.9629 117.816 78.5248C116.892 78.0048 116 77.5328 115.336 77.5168C115.038 77.5009 114.743 77.5815 114.494 77.7464C114.246 77.9114 114.057 78.1521 113.956 78.4329C113.956 78.4329 113.236 77.2968 112.132 77.4568C111.568 77.5408 111.2 78.5209 111.2 78.5209C111.023 78.27 110.779 78.0732 110.497 77.9524C110.214 77.8316 109.904 77.7916 109.6 77.8368C108.824 77.9968 108.576 78.9568 108.576 78.9568C108.576 78.9568 107.592 78.3768 106.852 78.8008C105.368 79.6248 106.048 86.4009 108.64 87.2009Z" fill="#EB9481"/>
<path id="Vector_129" d="M117.6 80.7326L119.736 80.9286C119.817 80.9208 119.897 80.9088 119.976 80.8926C122.672 80.4046 124.352 77.3166 122.376 77.0966C120.892 76.9246 119.284 78.8966 117.784 78.5006L117.6 80.7326Z" fill="#EB9481"/>
<path id="Vector_130" d="M108.524 79.0801H108.488C108.148 81.4461 108.536 83.8597 109.6 86.0001C109.636 86.0681 109.76 86.0361 109.736 85.9561C109 83.7352 108.592 81.4188 108.524 79.0801Z" fill="#263238"/>
<path id="Vector_131" d="M111.2 78.4683C111.2 78.4403 111.156 78.4403 111.152 78.4683C110.792 81.0771 111.376 83.7287 112.8 85.9443C112.852 86.0203 112.976 86.0363 112.92 85.9443C112.032 84.4003 111.2 80.6643 111.2 78.4683Z" fill="#263238"/>
<path id="Vector_132" d="M116.068 85.6284C114.688 83.4524 114.14 81.0524 113.936 78.5084C113.936 78.4764 113.888 78.4844 113.88 78.5084C113.644 79.7804 113.944 81.3884 114.28 82.6204C114.573 83.7693 115.162 84.8214 115.988 85.6724C116.028 85.7084 116.1 85.6764 116.068 85.6284Z" fill="#263238"/>
</g>
<g id="freepik--character-1--inject-7">
<path id="Vector_133" d="M82.28 176.8C81.452 177.076 57.744 177.008 56.84 176.436C56.5 176.22 56.308 172.764 56.196 168.584C56.168 167.684 56.152 166.752 56.136 165.804C56.136 164.684 56.104 163.548 56.096 162.444C56.068 157.492 56.136 153.132 56.136 153.132H71.572V162.444V165.804L71.492 168.584C71.492 168.584 80.556 172.672 81.492 173.408C82.428 174.144 83.108 176.544 82.28 176.8Z" fill="#AD6359"/>
<path id="Vector_134" d="M82.28 176.8C81.452 177.076 57.744 177.008 56.84 176.436C56.5 176.22 56.308 172.764 56.196 168.584C56.168 167.684 56.152 166.752 56.136 165.804C56.136 164.684 56.104 163.548 56.096 162.444H71.564V165.804L71.484 168.584C71.484 168.584 80.548 172.672 81.484 173.408C82.42 174.144 83.108 176.544 82.28 176.8Z" fill="white"/>
<path id="Vector_135" d="M82.352 176.852C81.812 177.032 71.716 177.068 64.352 176.916C62.648 176.876 61.092 176.832 59.84 176.776C58.108 176.696 56.948 176.604 56.76 176.484C56.34 176.216 56.144 171.144 56.048 165.792H71.556L71.476 168.592C71.476 168.592 80.592 172.704 81.52 173.444C82.448 174.184 83.2 176.572 82.352 176.852Z" fill="#0A638A"/>
<path id="Vector_136" d="M82 175.9C78 175.788 61.88 175.724 57.92 175.92C57.888 175.92 57.888 175.94 57.92 175.944C61.88 176.14 78.004 176.072 82 175.964C82.096 175.96 82.1 175.9 82 175.9Z" fill="#263238"/>
<path id="Vector_137" d="M72.056 167.704C70.484 167.408 68.56 167.644 67.356 168.76C67.308 168.804 67.356 168.868 67.424 168.852C68.928 168.37 70.4797 168.052 72.052 167.904C72.0785 167.904 72.1042 167.894 72.1233 167.876C72.1424 167.858 72.1535 167.832 72.154 167.806C72.1545 167.779 72.1445 167.754 72.1261 167.735C72.1078 167.715 72.0825 167.704 72.056 167.704Z" fill="#263238"/>
<path id="Vector_138" d="M73.2 168.4C71.628 168.1 69.704 168.336 68.496 169.456C68.452 169.496 68.496 169.564 68.564 169.548C70.0704 169.064 71.6247 168.743 73.2 168.592C73.2208 168.586 73.239 168.574 73.252 168.556C73.265 168.539 73.272 168.518 73.272 168.496C73.272 168.475 73.265 168.454 73.252 168.436C73.239 168.419 73.2208 168.406 73.2 168.4Z" fill="#263238"/>
<path id="Vector_139" d="M74.324 169.08C72.752 168.78 70.828 169.016 69.624 170.132C69.576 170.176 69.624 170.244 69.688 170.228C71.1926 169.748 72.7439 169.429 74.316 169.276C74.3388 169.273 74.3598 169.261 74.3752 169.244C74.3906 169.227 74.3995 169.205 74.4004 169.181C74.4014 169.158 74.3943 169.136 74.3803 169.117C74.3664 169.099 74.3465 169.086 74.324 169.08Z" fill="#263238"/>
<path id="Vector_140" d="M75.456 169.768C73.884 169.468 71.96 169.704 70.756 170.82C70.708 170.864 70.756 170.932 70.824 170.916C72.3266 170.433 73.8769 170.114 75.448 169.964C75.4708 169.96 75.4918 169.949 75.5071 169.931C75.5225 169.914 75.5315 169.892 75.5324 169.869C75.5334 169.846 75.5263 169.823 75.5123 169.805C75.4984 169.786 75.4785 169.773 75.456 169.768Z" fill="#263238"/>
<path id="Vector_141" d="M74.972 164.077C74.356 163.225 73.204 163.605 72.548 164.153C71.4357 165.119 70.597 166.36 70.116 167.753C70.1134 167.759 70.1123 167.765 70.1128 167.772C70.1133 167.778 70.1155 167.785 70.119 167.79C70.1226 167.796 70.1275 167.8 70.1332 167.804C70.139 167.807 70.1454 167.808 70.152 167.809C70.152 167.929 70.264 168.057 70.396 168.005C71.696 167.529 73.148 167.181 74.26 166.317C74.912 165.813 75.556 164.885 74.972 164.077ZM72.22 166.877C71.588 167.125 70.944 167.345 70.32 167.617C70.7738 166.903 71.2637 166.212 71.788 165.549C72.0446 165.23 72.324 164.931 72.624 164.653C73.092 164.225 74.948 163.325 74.664 165.053C74.508 166.001 72.976 166.577 72.22 166.877Z" fill="#263238"/>
<path id="Vector_142" d="M66.12 167.324C67.412 167.88 68.92 167.856 70.28 167.996C70.3106 167.996 70.3408 167.989 70.3682 167.975C70.3956 167.961 70.4194 167.942 70.438 167.917C70.4565 167.893 70.4693 167.865 70.4752 167.835C70.4811 167.805 70.48 167.774 70.472 167.744C70.477 167.74 70.481 167.736 70.4838 167.73C70.4866 167.724 70.488 167.718 70.488 167.712C70.488 167.706 70.4866 167.7 70.4838 167.694C70.481 167.689 70.477 167.684 70.472 167.68C69.6648 166.454 68.5505 165.461 67.24 164.8C66.464 164.432 65.24 164.352 64.872 165.332C64.504 166.312 65.364 167 66.12 167.324ZM65.412 166.204C64.708 164.604 66.728 165.004 67.288 165.304C67.6471 165.503 67.9931 165.725 68.324 165.968C68.9974 166.479 69.6436 167.026 70.26 167.604C69.588 167.496 68.912 167.444 68.236 167.36C67.428 167.26 65.8 167.084 65.412 166.204Z" fill="#263238"/>
<path id="Vector_143" d="M73.764 164.704L54.636 165.048C54.636 165.048 52.032 148.124 50.32 137.6C49.672 133.644 49.16 130.588 48.952 129.668C48.456 127.472 38.764 92.6157 38.764 92.6157L52.668 92.5957H57.42C57.42 92.5957 57.116 98.4237 57.296 99.0357C59.776 107.472 64.844 122.432 66.428 127.644C68.856 135.656 73.764 164.704 73.764 164.704Z" fill="#A6A6A6"/>
<path id="Vector_144" d="M72.024 161.772C69.28 161.752 59.544 161.644 55.888 161.984C55.8828 161.986 55.8783 161.99 55.8752 161.995C55.872 161.999 55.8704 162.005 55.8704 162.01C55.8704 162.016 55.872 162.021 55.8752 162.026C55.8783 162.031 55.8828 162.034 55.888 162.036C57.148 162.216 69.28 161.936 72.028 161.848C72.0341 161.85 72.0405 161.85 72.0466 161.849C72.0528 161.847 72.0586 161.845 72.0635 161.841C72.0684 161.837 72.0723 161.832 72.0748 161.826C72.0774 161.82 72.0786 161.814 72.0782 161.808C72.0779 161.801 72.0761 161.795 72.0729 161.79C72.0698 161.784 72.0654 161.78 72.0601 161.776C72.0548 161.773 72.0488 161.771 72.0425 161.77C72.0362 161.769 72.0299 161.77 72.024 161.772Z" fill="#263238"/>
<path id="Vector_145" d="M54.948 147.348C54.2867 142.972 53.5493 138.607 52.736 134.252C52.336 132.112 51.9 129.976 51.34 127.852C50.78 125.728 50.068 123.628 49.34 121.544C47.908 117.4 46.54 113.236 45.256 109.044C43.972 104.852 42.776 100.644 41.656 96.4004C41.512 95.8644 41.372 95.3284 41.216 94.8004C41.216 94.7564 41.14 94.7764 41.148 94.8004C41.584 96.9364 42.148 99.0524 42.688 101.164C43.228 103.276 43.808 105.38 44.412 107.476C45.628 111.684 46.9467 115.863 48.368 120.012C49.076 122.076 49.812 124.136 50.44 126.228C51.068 128.32 51.556 130.44 51.992 132.576C52.876 136.912 53.628 141.276 54.324 145.64C55.02 150.004 55.616 154.44 56.2 158.84C56.276 159.396 56.348 159.956 56.42 160.516C56.44 160.672 56.688 160.672 56.672 160.516C56.22 156.128 55.6 151.732 54.948 147.348Z" fill="#263238"/>
<path id="Vector_146" d="M52.668 92.5879L50.32 137.6C49.672 133.644 49.16 130.588 48.952 129.668C48.456 127.472 38.764 92.6159 38.764 92.6159L52.668 92.5879Z" fill="#263238"/>
<path id="Vector_147" d="M58.556 180.592C57.728 180.868 34.02 180.8 33.116 180.224C32.776 180.012 32.584 176.556 32.472 172.376C32.444 171.472 32.428 170.544 32.412 169.596C32.412 168.472 32.38 167.34 32.372 166.236C32.344 161.284 32.412 156.924 32.412 156.924H47.844V169.6L47.764 172.38C47.764 172.38 56.828 176.468 57.764 177.204C58.7 177.94 59.384 180.32 58.556 180.592Z" fill="#AD6359"/>
<path id="Vector_148" d="M58.556 180.592C57.728 180.868 34.02 180.8 33.116 180.224C32.776 180.012 32.584 176.556 32.472 172.376C32.444 171.472 32.428 170.544 32.412 169.596C32.412 168.472 32.38 167.34 32.372 166.236H47.84V169.6L47.76 172.38C47.76 172.38 56.824 176.468 57.76 177.204C58.696 177.94 59.384 180.32 58.556 180.592Z" fill="white"/>
<path id="Vector_149" d="M58.628 180.628C58.088 180.804 47.988 180.84 40.628 180.688C38.928 180.652 37.372 180.604 36.116 180.552C34.388 180.472 33.228 180.376 33.036 180.256C32.636 179.988 32.42 174.92 32.328 169.568H47.836L47.756 172.368C47.756 172.368 56.88 176.476 57.808 177.2C58.736 177.924 59.46 180.348 58.628 180.628Z" fill="#0A638A"/>
<path id="Vector_150" d="M58.288 179.672C54.288 179.564 38.164 179.496 34.208 179.692C34.176 179.692 34.176 179.716 34.208 179.72C38.164 179.912 54.292 179.848 58.288 179.74C58.372 179.736 58.372 179.676 58.288 179.672Z" fill="#263238"/>
<path id="Vector_151" d="M48.332 171.481C46.76 171.181 44.836 171.417 43.632 172.533C43.584 172.577 43.632 172.645 43.696 172.629C45.2005 172.148 46.7519 171.829 48.324 171.677C48.3468 171.673 48.3678 171.662 48.3832 171.644C48.3986 171.627 48.4075 171.605 48.4084 171.582C48.4094 171.559 48.4023 171.536 48.3883 171.518C48.3744 171.499 48.3545 171.486 48.332 171.481Z" fill="#263238"/>
<path id="Vector_152" d="M49.464 172.168C47.892 171.868 45.968 172.104 44.764 173.22C44.716 173.264 44.764 173.332 44.832 173.316C46.3358 172.833 47.8875 172.514 49.46 172.364C49.4827 172.36 49.5033 172.348 49.5183 172.331C49.5332 172.313 49.5417 172.291 49.5422 172.268C49.5426 172.245 49.5351 172.222 49.5209 172.204C49.5066 172.186 49.4865 172.173 49.464 172.168Z" fill="#263238"/>
<path id="Vector_153" d="M50.6 172.852C49.028 172.556 47.104 172.792 45.896 173.908C45.852 173.952 45.896 174.016 45.964 174C47.4686 173.521 49.02 173.203 50.592 173.052C50.6185 173.053 50.6443 173.044 50.6638 173.026C50.6834 173.008 50.6949 172.983 50.696 172.956C50.697 172.93 50.6875 172.904 50.6695 172.884C50.6515 172.865 50.6265 172.853 50.6 172.852Z" fill="#263238"/>
<path id="Vector_154" d="M51.732 173.541C50.16 173.245 48.236 173.481 47.032 174.597C46.984 174.641 47.032 174.705 47.096 174.689C48.6007 174.21 50.1521 173.892 51.724 173.741C51.7505 173.742 51.7764 173.732 51.7959 173.714C51.8154 173.696 51.827 173.671 51.828 173.645C51.8291 173.618 51.8196 173.592 51.8015 173.573C51.7835 173.553 51.7585 173.542 51.732 173.541Z" fill="#263238"/>
<path id="Vector_155" d="M51.248 167.852C50.632 166.996 49.48 167.376 48.82 167.928C47.7077 168.894 46.869 170.135 46.388 171.528C46.3862 171.534 46.3859 171.541 46.387 171.548C46.3881 171.554 46.3907 171.56 46.3945 171.566C46.3984 171.571 46.4034 171.575 46.4092 171.579C46.415 171.582 46.4214 171.584 46.428 171.584C46.4262 171.615 46.4318 171.645 46.4442 171.673C46.4566 171.701 46.4756 171.726 46.4995 171.745C46.5233 171.764 46.5515 171.777 46.5815 171.783C46.6115 171.789 46.6426 171.788 46.672 171.78C47.972 171.304 49.42 170.956 50.536 170.092C51.2 169.6 51.828 168.656 51.248 167.852ZM48.496 170.652C47.86 170.904 47.22 171.12 46.596 171.396C47.072 170.696 47.516 169.98 48.06 169.328C48.3188 169.01 48.598 168.709 48.896 168.428C49.368 168.004 51.22 167.104 50.94 168.828C50.8 169.776 49.252 170.352 48.496 170.648V170.652Z" fill="#263238"/>
<path id="Vector_156" d="M42.4 171.1C43.696 171.656 45.2 171.632 46.564 171.772C46.595 171.773 46.6256 171.765 46.6533 171.752C46.681 171.738 46.705 171.717 46.7234 171.692C46.7417 171.667 46.7539 171.638 46.7589 171.608C46.7639 171.577 46.7615 171.546 46.752 171.516C46.7582 171.514 46.7639 171.511 46.7686 171.506C46.7733 171.502 46.777 171.496 46.7793 171.49C46.7816 171.484 46.7825 171.477 46.7819 171.471C46.7813 171.464 46.7793 171.458 46.776 171.452C45.9609 170.228 44.8399 169.238 43.524 168.58C42.748 168.212 41.524 168.132 41.156 169.112C40.788 170.092 41.636 170.776 42.4 171.1ZM41.696 169.976C40.992 168.376 43.012 168.776 43.572 169.08C43.9319 169.277 44.278 169.497 44.608 169.74C45.2804 170.254 45.9266 170.802 46.544 171.38C45.868 171.268 45.192 171.22 44.516 171.136C43.704 171.036 42.076 170.86 41.688 169.976H41.696Z" fill="#263238"/>
<path id="Vector_157" d="M50 168.252H31.284C31.284 168.252 35.352 110.22 34.696 106.968C33.62 101.644 34.336 95.5284 36.856 92.5684H53.508C53.508 92.5684 53.84 97.2404 52.12 100.032C52.12 100.032 50.556 101.02 49.8 101.456L50 168.252Z" fill="#A6A6A6"/>
<path id="Vector_158" d="M48.256 165.224C45.664 165.16 46.412 165.14 43.816 165.104C42.548 165.084 34.216 164.968 33.016 165.156C32.988 165.156 32.988 165.204 33.016 165.208C34.216 165.412 42.544 165.384 43.816 165.376C46.408 165.376 45.664 165.34 48.256 165.3C48.264 165.298 48.271 165.293 48.2759 165.286C48.2808 165.279 48.2835 165.271 48.2835 165.262C48.2835 165.254 48.2808 165.246 48.2759 165.239C48.271 165.232 48.264 165.227 48.256 165.224Z" fill="#263238"/>
<path id="Vector_159" d="M53.16 99.3001C51.5228 100.089 49.9558 101.017 48.476 102.072C48.4638 102.08 48.455 102.092 48.4517 102.105C48.4483 102.119 48.4506 102.134 48.458 102.146C48.4654 102.158 48.4774 102.167 48.4913 102.17C48.5051 102.174 48.5198 102.172 48.532 102.164C50.132 101.288 51.732 100.44 53.268 99.4801C53.2919 99.4658 53.3091 99.4426 53.3158 99.4156C53.3226 99.3886 53.3183 99.36 53.304 99.3361C53.2897 99.3122 53.2664 99.295 53.2394 99.2883C53.2124 99.2815 53.1839 99.2858 53.16 99.3001Z" fill="#263238"/>
<path id="Vector_160" d="M51.036 99.06C50.9411 99.3831 50.8662 99.7117 50.812 100.044C50.744 100.305 50.7264 100.576 50.76 100.844C50.76 100.896 50.844 100.892 50.868 100.844C50.9935 100.592 51.0798 100.322 51.124 100.044C51.204 99.736 51.292 99.432 51.36 99.124C51.408 98.928 51.1 98.86 51.036 99.06Z" fill="#263238"/>
<path id="Vector_161" d="M50.888 97.4558C50.932 97.1758 50.976 96.8998 51.028 96.6238C51.08 96.3478 51.152 96.0478 51.18 95.7598C51.18 95.7118 51.26 95.7278 51.252 95.7598C51.208 96.0398 51.204 96.3278 51.18 96.6078C51.156 96.8878 51.132 97.1718 51.104 97.4518C51.0477 97.9796 50.9649 98.5043 50.856 99.0238C51.1323 98.9768 51.3946 98.8688 51.624 98.7078C51.8366 98.4888 51.9764 98.2093 52.024 97.9078C52.104 97.5878 52.176 97.2678 52.26 96.9478C52.3733 96.6012 52.455 96.2451 52.504 95.8838C52.504 95.8358 52.584 95.8518 52.576 95.8838C52.511 96.6442 52.3689 97.3961 52.152 98.1278C52.1052 98.418 51.9563 98.6818 51.732 98.8718C51.4432 99.0259 51.1261 99.1198 50.8 99.1478C50.764 99.1478 50.708 99.1478 50.712 99.1038C50.7433 98.5519 50.802 98.0019 50.888 97.4558Z" fill="#263238"/>
<path id="Vector_162" d="M37.4 106.756C37.28 105.532 37.08 104.316 36.948 103.092C36.6979 100.642 36.8465 98.1673 37.388 95.7645C37.388 95.7205 37.328 95.7005 37.32 95.7645C36.8464 97.8748 36.6262 100.034 36.664 102.196C36.772 104.356 37.156 106.484 37.188 108.648C37.22 110.812 37.052 113.028 36.912 115.212C36.772 117.396 36.628 119.612 36.488 121.808C35.92 130.644 35.396 139.48 34.856 148.32C34.7067 150.784 34.5627 153.251 34.424 155.72C34.28 158.228 34.104 160.74 34.024 163.256C34.024 163.472 34.336 163.456 34.356 163.256C34.732 158.82 34.948 154.368 35.232 149.932C35.516 145.496 35.768 141.132 36.032 136.732C36.296 132.332 36.564 127.932 36.832 123.532C36.96 121.335 37.0933 119.138 37.232 116.94C37.36 114.752 37.52 112.56 37.552 110.368C37.5696 109.163 37.5188 107.957 37.4 106.756Z" fill="#263238"/>
<path id="Vector_163" d="M43.296 95.6C43.2924 95.5942 43.2874 95.5894 43.2814 95.5861C43.2755 95.5828 43.2688 95.5811 43.262 95.5811C43.2552 95.5811 43.2485 95.5828 43.2425 95.5861C43.2366 95.5894 43.2316 95.5942 43.228 95.6C43.1286 95.8898 43.076 96.1936 43.072 96.5C43.0202 96.8279 42.944 97.1514 42.844 97.468C42.6603 98.1045 42.316 98.6831 41.844 99.148C40.796 100.128 39.392 100.492 38.04 100.82C38.031 100.823 38.0232 100.828 38.0176 100.836C38.0121 100.843 38.0091 100.853 38.0091 100.862C38.0091 100.871 38.0121 100.88 38.0176 100.888C38.0232 100.896 38.031 100.901 38.04 100.904C38.8433 100.94 39.6458 100.815 40.4 100.536C41.0727 100.33 41.6934 99.9825 42.22 99.516C42.7227 99.0376 43.0663 98.4162 43.204 97.736C43.2755 97.3803 43.313 97.0187 43.316 96.656C43.316 96.484 43.316 96.312 43.316 96.136C43.3446 95.9577 43.3378 95.7756 43.296 95.6Z" fill="#263238"/>
<path id="Vector_164" d="M51.136 73.152C51.48 75.872 56.808 85.984 62.48 90.464C64.56 92.108 75.588 93.08 78.348 92.864C81.576 92.616 82.06 84.932 80.252 84.332C77.992 83.584 67.536 82.66 65.484 81.932C62.988 81.028 58.444 75.224 54.124 71.632C51.904 69.772 50.872 71.06 51.136 73.152Z" fill="#AD6359"/>
<path id="Vector_165" d="M78.348 92.8676C79.368 92.8396 84.036 92.3036 85.304 91.8636C86.572 91.4236 90.104 89.8956 89.88 88.8916C89.656 87.8876 88.568 88.2516 88.568 88.2516C88.568 88.2516 89.964 87.3676 89.632 86.3796C89.3 85.3916 87.632 86.0156 87.632 86.0156C87.632 86.0156 89 85.0036 88.596 84.0396C88.192 83.0756 86.636 83.9836 86.636 83.9836C86.636 83.9836 87.932 83.1156 87.268 82.4596C86.468 81.6596 84.26 83.5436 82.828 83.9236C82.5 84.0116 76.1 85.2076 76.1 85.2076L78.348 92.8676Z" fill="#AD6359"/>
<path id="Vector_166" d="M86.8 83.9078C85.172 85.2758 84.224 85.5958 82.152 85.8798C82.1449 85.8822 82.1388 85.8868 82.1345 85.8929C82.1301 85.899 82.1278 85.9063 82.1278 85.9138C82.1278 85.9213 82.1301 85.9286 82.1345 85.9347C82.1388 85.9407 82.1449 85.9453 82.152 85.9478C84.204 85.8518 85.452 85.6238 86.868 83.9838C86.928 83.9038 86.864 83.8438 86.8 83.9078Z" fill="#263238"/>
<path id="Vector_167" d="M87.772 85.9041C85.96 87.2001 84.936 87.5321 82.8 88.0001C82.772 88.0001 82.78 88.0601 82.8 88.0561C84.944 87.7801 86.184 87.5241 87.828 86.0121C87.896 85.9361 87.856 85.8441 87.772 85.9041Z" fill="#263238"/>
<path id="Vector_168" d="M88.456 88.2716C86.612 89.3796 85.504 89.8156 83.36 89.9956C83.3494 89.9956 83.3392 89.9998 83.3317 90.0073C83.3242 90.0148 83.32 90.025 83.32 90.0356C83.32 90.0462 83.3242 90.0564 83.3317 90.0639C83.3392 90.0714 83.3494 90.0756 83.36 90.0756C85.2293 90.1882 87.0681 89.5619 88.48 88.3316C88.588 88.2476 88.572 88.2036 88.456 88.2716Z" fill="#263238"/>
<path id="Vector_169" d="M74.62 84.3684C75.6974 83.6722 76.8244 83.0559 77.992 82.5244C79.12 82.1244 83.88 82.1244 83.932 83.1564C84.004 84.4844 81.256 85.0164 79.876 85.1044C79.876 85.1044 80.048 88.1724 78.156 88.9844C76.264 89.7964 74.62 84.3684 74.62 84.3684Z" fill="#AD6359"/>
<path id="Vector_170" d="M83.836 83.5278C83.036 84.7838 81.208 84.7798 79.876 84.9638C79.8559 84.9648 79.8363 84.9709 79.8191 84.9815C79.8019 84.9921 79.7877 85.0068 79.7777 85.0244C79.7678 85.0419 79.7624 85.0617 79.7621 85.0819C79.7618 85.102 79.7666 85.122 79.776 85.1398C79.776 86.4318 79.376 88.2478 78.236 89.0118C78.2 89.0358 78.236 89.0878 78.264 89.0678C79.588 88.4118 80.124 86.6678 80.048 85.2398C81.416 85.0758 83.248 84.9998 83.848 83.5318C83.852 83.5238 83.84 83.5198 83.836 83.5278Z" fill="#263238"/>
<path id="Vector_171" d="M68.82 92.7205C68.82 92.7205 63.172 91.1765 62.484 90.6365C61.7333 90.0465 61.0174 89.4135 60.34 88.7405C55.2 83.6885 52.096 76.8005 51.256 74.4005C50.368 71.8445 51.184 69.3965 53.564 71.0445C53.7555 71.1801 53.9398 71.3256 54.116 71.4805C56.916 73.9205 64.404 81.3405 65.316 81.7205C66.228 82.1005 70.624 82.6765 70.624 82.6765L68.82 92.7205Z" fill="#455A64"/>
<path id="Vector_172" d="M60.34 88.7405C55.2 83.6885 52.096 76.8005 51.256 74.4005C50.368 71.8445 51.184 69.3965 53.564 71.0445L60.34 88.7405Z" fill="#263238"/>
<path id="Vector_173" d="M68.8 82.5002C68.537 83.2722 68.3193 84.0588 68.148 84.8562C67.952 85.6562 67.748 86.4562 67.584 87.2562C67.2278 88.8252 66.9607 90.413 66.784 92.0122C66.784 92.0217 66.7878 92.0309 66.7945 92.0376C66.8013 92.0444 66.8104 92.0482 66.82 92.0482C66.8295 92.0482 66.8387 92.0444 66.8454 92.0376C66.8522 92.0309 66.856 92.0217 66.856 92.0122C67.288 90.4442 67.608 88.8402 67.936 87.2482C68.1 86.4482 68.248 85.6722 68.412 84.8882C68.576 84.1042 68.772 83.2882 68.86 82.5122C68.8616 82.5042 68.86 82.496 68.8555 82.4892C68.8509 82.4825 68.8439 82.4778 68.836 82.4762C68.828 82.4746 68.8198 82.4762 68.813 82.4807C68.8063 82.4852 68.8016 82.4922 68.8 82.5002Z" fill="#263238"/>
<path id="Vector_174" d="M56.616 78.6926C56.748 79.2846 56.852 79.8926 56.932 80.5166C56.93 80.4926 56.93 80.4685 56.932 80.4446C56.964 80.1046 56.988 79.7566 57.048 79.4206C57.048 79.4206 57.08 79.4006 57.08 79.4206C57.1006 79.7664 57.0872 80.1134 57.04 80.4566C57.02 80.6206 57 80.7846 56.976 80.9446C57.004 81.2206 57.028 81.4966 57.044 81.7686C57.076 82.2886 57.176 84.5086 57.164 84.8886C57.164 84.9686 57.072 84.9766 57.052 84.8886C56.976 84.4886 56.776 82.2126 56.72 81.6886C56.6153 80.6894 56.5645 79.6852 56.568 78.6806C56.576 78.6686 56.608 78.6726 56.616 78.6926Z" fill="#263238"/>
<path id="Vector_175" d="M57.252 95.3081C56.452 96.0281 55.476 97.0801 49.86 97.4721C49.508 97.4721 49.148 97.5001 48.788 97.4721C43.38 97.3201 35.792 93.0721 35.34 92.7361C35.34 92.7361 41.168 76.9681 48.876 70.9161C49.976 70.0481 52.336 70.4761 53.812 71.3681C54.34 71.6881 56.084 74.6041 56.436 77.2601C56.788 79.9161 58.048 94.5881 57.252 95.3081Z" fill="#455A64"/>
<path id="Vector_176" d="M52.872 75.3205C51.512 75.4325 49.564 73.0805 48.924 71.3205C48.88 71.2005 49.232 70.0525 49.592 68.6365C49.808 67.7765 50.028 66.8165 50.164 65.9245C50.192 65.7405 50.764 66.1725 50.764 66.1725L51.876 66.6285L55.556 68.1405C55.0643 69.2072 54.7057 70.3303 54.488 71.4845C54.4762 71.6096 54.4762 71.7355 54.488 71.8605C54.4898 71.8805 54.4898 71.9006 54.488 71.9205C54.476 72.6285 54.184 75.2005 52.872 75.3205Z" fill="#AD6359"/>
<path id="Vector_177" d="M54.472 71.856C54.4737 71.876 54.4737 71.8961 54.472 71.916C54.2774 71.9136 54.0834 71.8948 53.892 71.86C50.132 71.2 50.4 66.332 50.4 66.332L51.88 66.624L55.56 68.136C55.0683 69.2027 54.7096 70.3258 54.492 71.48C54.4735 71.6045 54.4668 71.7303 54.472 71.856Z" fill="#263238"/>
<path id="Vector_178" d="M49.784 60.0643C49.068 62.0403 49.832 67.8883 51.192 69.2643C53.164 71.2643 56.544 71.5963 58.26 69.1883C59.928 66.8603 58.796 59.2523 57.264 57.9883C55.004 56.1363 50.84 57.1483 49.784 60.0643Z" fill="#AD6359"/>
<path id="Vector_179" d="M55.112 64.1123C55.112 64.1123 55.084 64.1363 55.088 64.1523C55.148 64.5523 55.156 65.0043 54.812 65.1803C54.812 65.1803 54.812 65.2043 54.812 65.2003C55.248 65.0843 55.236 64.4723 55.112 64.1123Z" fill="#263238"/>
<path id="Vector_180" d="M54.708 63.7446C54.068 63.7766 54.18 65.0526 54.772 65.0246C55.364 64.9966 55.244 63.7166 54.708 63.7446Z" fill="#263238"/>
<path id="Vector_181" d="M57.536 63.8477C57.536 63.8477 57.568 63.8477 57.568 63.8797C57.592 64.2797 57.684 64.7277 58.052 64.8317C57.6 64.8277 57.492 64.2277 57.536 63.8477Z" fill="#263238"/>
<path id="Vector_182" d="M57.856 63.404C58.488 63.304 58.656 64.576 58.06 64.672C57.464 64.768 57.324 63.492 57.856 63.404Z" fill="#263238"/>
<path id="Vector_183" d="M54.212 62.8002C54.38 62.7402 54.528 62.6562 54.692 62.5802C54.8704 62.5282 55.0266 62.4184 55.136 62.2682C55.1625 62.2144 55.1703 62.1532 55.158 62.0944C55.1456 62.0357 55.1139 61.9828 55.068 61.9442C54.964 61.8841 54.846 61.8525 54.726 61.8525C54.6059 61.8525 54.4879 61.8841 54.384 61.9442C54.1544 62.0308 53.9659 62.2008 53.856 62.4202C53.8359 62.4709 53.8307 62.5263 53.8409 62.5799C53.8511 62.6335 53.8763 62.6831 53.9136 62.7229C53.9509 62.7627 53.9988 62.7911 54.0516 62.8048C54.1044 62.8185 54.16 62.8169 54.212 62.8002Z" fill="#263238"/>
<path id="Vector_184" d="M58.256 62.972C58.0811 62.9527 57.9075 62.9233 57.736 62.884C57.5489 62.878 57.3689 62.8105 57.224 62.692C57.1883 62.6447 57.169 62.5872 57.169 62.528C57.169 62.4688 57.1883 62.4112 57.224 62.364C57.3063 62.2765 57.4108 62.2132 57.5264 62.1808C57.642 62.1484 57.7643 62.1481 57.88 62.18C58.1249 62.2053 58.3515 62.3208 58.516 62.504C58.5505 62.5491 58.5711 62.6034 58.5753 62.6601C58.5794 62.7168 58.5669 62.7734 58.5393 62.8231C58.5117 62.8728 58.4702 62.9134 58.4198 62.9398C58.3695 62.9662 58.3126 62.9774 58.256 62.972Z" fill="#263238"/>
<path id="Vector_185" d="M56.98 66.0001C57.0201 66.288 57.0455 66.5777 57.056 66.8681C56.515 66.8703 55.9768 66.9457 55.456 67.0921C55.336 67.1321 55.336 67.0281 55.456 66.9481C55.8634 66.7057 56.3349 66.5927 56.808 66.6241C56.808 66.5481 56.672 65.7201 56.716 65.7161C56.9308 65.738 57.1419 65.7878 57.344 65.8641C57.22 64.6321 56.9 63.4281 56.792 62.2001C56.792 62.1561 56.852 62.1401 56.864 62.1801C57.2505 63.459 57.5064 64.7737 57.628 66.1041C57.664 66.2601 57.092 66.0441 56.98 66.0001Z" fill="#263238"/>
<path id="Vector_186" d="M50.208 64.9399C51.216 64.8679 51.088 62.4038 51.088 62.4038C51.088 62.4038 52.624 62.1078 53.348 60.0038C53.348 60.0038 55.348 61.2039 57 60.8999C59.592 60.3959 59.48 57.0159 58.5 56.3399C57.108 55.3799 54.668 56.8319 54.668 56.8319C54.668 56.8319 50.94 55.8438 49.868 58.3718C49.3867 58.4113 48.9383 58.6318 48.6131 58.9888C48.288 59.3459 48.1104 59.813 48.116 60.2959C48.02 62.1159 49.46 64.9919 50.208 64.9399Z" fill="#263238"/>
<path id="Vector_187" d="M50.732 62.6998C51.4779 62.5618 52.1563 62.1789 52.66 61.6118C52.9306 61.3052 53.1232 60.9378 53.2214 60.5409C53.3196 60.1439 53.3205 59.7292 53.224 59.3318C53.2265 59.3247 53.2311 59.3186 53.2372 59.3143C53.2433 59.3099 53.2506 59.3076 53.258 59.3076C53.2655 59.3076 53.2728 59.3099 53.2789 59.3143C53.285 59.3186 53.2896 59.3247 53.292 59.3318C53.4117 59.7478 53.438 60.1852 53.3688 60.6126C53.2996 61.0399 53.1368 61.4467 52.892 61.8038C52.6475 62.1422 52.3189 62.411 51.9387 62.5836C51.5584 62.7561 51.1398 62.8265 50.724 62.7878C50.7 62.7678 50.688 62.7078 50.732 62.6998Z" fill="#263238"/>
<path id="Vector_188" d="M54.568 56.9442C54.8892 56.4138 55.3926 56.0185 55.984 55.8322C56.7031 55.6281 57.4722 55.6964 58.144 56.0242C58.4112 56.1642 58.6369 56.3721 58.7984 56.627C58.9599 56.8818 59.0515 57.1747 59.064 57.4762C59.0721 58.1756 58.839 58.8564 58.404 59.4041C58.404 59.4041 58.368 59.4041 58.38 59.4041C58.7271 58.887 58.9046 58.2747 58.888 57.6522C58.8772 57.3559 58.7828 57.0688 58.6157 56.8239C58.4487 56.579 58.2158 56.3864 57.944 56.2682C56.872 55.8082 55.312 55.9042 54.624 56.9962C54.604 57.0202 54.544 56.9802 54.568 56.9442Z" fill="#263238"/>
<path id="Vector_189" d="M50.8 64.8483C50.8 64.8483 49.548 62.9323 48.68 63.3763C47.812 63.8203 48.72 66.5763 49.708 66.9763C49.831 67.0364 49.9648 67.071 50.1015 67.0781C50.2382 67.0851 50.3749 67.0645 50.5034 67.0174C50.6319 66.9704 50.7496 66.8978 50.8493 66.8041C50.9491 66.7105 51.0289 66.5976 51.084 66.4723L50.8 64.8483Z" fill="#AD6359"/>
<path id="Vector_190" d="M48.94 64.1562C48.94 64.1562 48.94 64.1763 48.94 64.1843C49.2562 64.3543 49.5332 64.5889 49.753 64.8727C49.9728 65.1566 50.1306 65.4835 50.216 65.8323C50.1777 65.7604 50.1242 65.6978 50.0592 65.6488C49.9942 65.5997 49.9193 65.5655 49.8398 65.5483C49.7602 65.5312 49.6778 65.5316 49.5984 65.5496C49.519 65.5675 49.4445 65.6026 49.38 65.6523C49.38 65.6523 49.38 65.6923 49.38 65.6883C49.5042 65.653 49.6364 65.6571 49.7582 65.7001C49.88 65.7431 49.9854 65.8228 50.06 65.9283C50.1841 66.1058 50.2887 66.2962 50.372 66.4963C50.404 66.5603 50.516 66.5282 50.496 66.4562C50.552 65.5483 49.896 64.2763 48.94 64.1562Z" fill="#263238"/>
<path id="Vector_191" d="M13.068 188.129H0V185.729H13.068C23.42 185.729 26.372 176.869 27.024 169.437C27.536 163.617 27.848 156.529 28.18 149.037C29.424 120.965 30.712 91.9365 42.008 91.9365H52.36V94.3365H42C33 94.3365 31.6 126.013 30.572 149.137C30.236 156.669 29.92 163.781 29.408 169.657C28.368 181.565 22.564 188.129 13.068 188.129Z" fill="#0A638A"/>
<path id="Vector_192" opacity="0.2" d="M52.36 91.9238V94.3238H44.104L43.592 91.9238H52.36Z" fill="black"/>
<path id="Vector_193" d="M88.272 108.628H92.68V77.8359H88.272V108.628Z" fill="#0A638A"/>
<path id="Vector_194" d="M88.272 79.2959H71.52V106.848H88.272V79.2959Z" fill="#0A638A"/>
<path id="Vector_195" opacity="0.2" d="M88.272 79.2959V106.848H84.112L82.244 79.2959H88.272Z" fill="black"/>
<path id="Vector_196" d="M46.144 95.5762H58.572V90.6682H46.144V95.5762Z" fill="#0A638A"/>
<path id="Vector_197" d="M58.572 90.6719H46.144V95.5799H58.572V90.6719Z" fill="#0A638A"/>
<path id="Vector_198" opacity="0.2" d="M54.208 95.5759L54.616 90.6719H58.572V95.5759H54.208Z" fill="black"/>
<path id="Vector_199" d="M71.52 105.216H61.032C60.3796 105.216 59.7539 104.957 59.2925 104.495C58.8312 104.034 58.572 103.408 58.572 102.756V83.6998C58.572 83.0474 58.8312 82.4217 59.2925 81.9603C59.7539 81.499 60.3796 81.2398 61.032 81.2398H71.52V105.216Z" fill="#0A638A"/>
<path id="Vector_200" opacity="0.2" d="M66.008 105.216L67.876 81.2441H71.52V105.216H66.008Z" fill="black"/>
<g id="Group_2" opacity="0.2">
<path id="Vector_201" d="M66.972 100.368H67.8V86.0882H66.972V100.368Z" fill="black"/>
<path id="Vector_202" d="M64.632 100.368H65.46V86.0882H64.632V100.368Z" fill="black"/>
<path id="Vector_203" d="M62.288 100.368H63.116V86.0882H62.288V100.368Z" fill="black"/>
</g>
<path id="Vector_204" d="M45.38 76.46C44.98 82.236 44.524 94 47.076 97.452C50.424 101.98 59.876 104.728 62.676 105.552C63.876 105.908 66.752 97.952 66.04 96.808C65.328 95.664 55.572 93.208 54.804 92.536C54.036 91.864 51.604 82.488 50.448 77.712C48.952 71.688 45.544 74.18 45.38 76.46Z" fill="#AD6359"/>
<path id="Vector_205" d="M73.248 99.8646C74.788 100.233 77.124 99.4406 77.2 100.621C77.268 101.669 75.6 102.057 75.6 102.057C75.6 102.057 77.624 102.229 77.376 103.377C77.128 104.525 75.208 104.577 75.208 104.577C75.208 104.577 77.064 104.829 76.732 105.957C76.4 107.085 74.62 107.241 74.62 107.241C74.62 107.241 75.088 107.589 74.496 108.281C73.652 109.273 70.836 109.157 69.384 108.749C67.932 108.341 62.904 105.765 62.14 105.353L64.688 95.9926C64.688 95.9926 67.612 95.5286 69.124 95.4726C70.636 95.4166 75.664 96.6166 75.452 97.8726C75.24 99.1286 71.7 98.2326 70.784 98.2006C69.868 98.1686 69.708 98.3726 70.108 98.7086C70.368 98.9446 72.564 99.7006 73.248 99.8646Z" fill="#AD6359"/>
<path id="Vector_206" d="M75.508 102.036C73.144 102.436 72.04 102.172 69.872 101.236C69.828 101.216 69.792 101.276 69.836 101.3C71.876 102.4 73.216 102.9 75.532 102.144C75.648 102.112 75.624 102.02 75.508 102.036Z" fill="#263238"/>
<path id="Vector_207" d="M75.3 104.536C72.808 104.716 71.612 104.464 69.268 103.656C69.236 103.656 69.212 103.7 69.244 103.716C71.48 104.696 72.824 105.172 75.292 104.664C75.404 104.644 75.416 104.528 75.3 104.536Z" fill="#263238"/>
<path id="Vector_208" d="M74.588 107.224C72.16 107.224 70.836 107 68.66 105.928C68.65 105.923 68.6384 105.922 68.6277 105.926C68.617 105.929 68.608 105.936 68.6024 105.946C68.5968 105.955 68.595 105.967 68.5976 105.978C68.6001 105.989 68.6067 105.998 68.616 106.004C70.728 107.316 72.38 107.604 74.58 107.3C74.728 107.276 74.74 107.224 74.588 107.224Z" fill="#263238"/>
<path id="Vector_209" d="M55.296 103.676C55.296 103.676 47.668 99.8438 46.496 96.9078C45.056 93.2438 44.468 82.5598 45.028 77.0798C45.588 71.5998 49.404 72.2798 50.628 77.1238C51.828 81.8518 54.536 91.2958 54.816 91.7398C55.172 92.3118 59.524 93.3878 59.524 93.3878" fill="#455A64"/>
<path id="Vector_210" d="M54.532 90.5157C54.4 90.0637 54.168 89.0437 54.036 88.6037C53.768 87.7237 53.5 86.8397 53.236 85.9597C52.972 85.0797 52.688 84.1957 52.396 83.3197C52.344 83.1717 52.296 83.0197 52.248 82.8717C52.272 82.7757 52.164 81.6157 52.172 81.3317C52.172 81.2877 52.1 81.2837 52.104 81.3317C52.1147 81.616 52.1053 81.9007 52.076 82.1837C52.076 82.2357 52.076 82.2917 52.076 82.3437C51.892 81.7677 51.708 81.1957 51.52 80.6357C51.52 80.5957 51.44 80.6117 51.452 80.6357C51.812 81.8357 51.988 82.5917 52.252 83.5637C52.516 84.5357 52.788 85.4397 53.052 86.3637C53.316 87.2877 53.624 88.2277 53.916 89.1637C54.0803 89.7184 54.2725 90.2644 54.492 90.7997C54.66 91.1597 54.668 90.9917 54.532 90.5157Z" fill="#263238"/>
<path id="Vector_211" d="M45.928 93.7439C45.772 92.7559 45.616 91.7439 45.496 90.7679C45.252 88.7679 45.096 86.7999 45.008 84.7999C44.956 83.6559 44.872 82.5199 44.808 81.3799C44.808 81.3683 44.8034 81.3571 44.7951 81.3488C44.7869 81.3406 44.7757 81.3359 44.764 81.3359C44.7523 81.3359 44.7412 81.3406 44.7329 81.3488C44.7247 81.3571 44.72 81.3683 44.72 81.3799C44.72 82.3959 44.684 83.4079 44.72 84.4239C44.72 84.5719 44.72 84.7199 44.72 84.8679L44.672 84.6599C44.524 84.0799 44.316 83.5119 44.188 82.9239C44.1845 82.9171 44.1787 82.9118 44.1716 82.9089C44.1646 82.9061 44.1567 82.9058 44.1494 82.9082C44.1422 82.9106 44.1361 82.9156 44.1321 82.9221C44.1282 82.9287 44.1267 82.9364 44.128 82.9439C44.272 83.5279 44.348 84.1439 44.484 84.7159C44.556 85.0079 44.628 85.2999 44.708 85.5919L44.748 85.7159C44.772 86.2999 44.8 86.8839 44.84 87.4679C44.9485 89.4722 45.1796 91.4679 45.532 93.4439C45.7737 94.7361 46.1229 96.0059 46.576 97.2399C46.5783 97.2461 46.5824 97.2513 46.5877 97.2551C46.5931 97.2588 46.5995 97.2608 46.606 97.2608C46.6125 97.2608 46.6189 97.2588 46.6243 97.2551C46.6296 97.2513 46.6337 97.2461 46.636 97.2399C46.4 96.2519 46.088 94.7319 45.928 93.7439Z" fill="#263238"/>
<path id="Vector_212" d="M58.108 93.3841C57.6903 94.1022 57.3163 94.8449 56.988 95.6081C56.636 96.3601 56.28 97.1121 55.948 97.8721C55.2748 99.3687 54.6859 100.902 54.184 102.464C54.1831 102.473 54.185 102.482 54.1896 102.489C54.1942 102.497 54.2011 102.503 54.2093 102.506C54.2175 102.509 54.2265 102.509 54.235 102.507C54.2434 102.504 54.2508 102.499 54.256 102.492C55 101.012 55.636 99.4721 56.284 97.9481C56.604 97.1961 56.912 96.4361 57.228 95.6841C57.544 94.9321 57.904 94.1761 58.148 93.4001C58.156 93.3761 58.12 93.3641 58.108 93.3841Z" fill="#263238"/>
</g>
<g id="freepik--Lines--inject-7">
<path id="Vector_213" d="M100.064 72.6843C100.011 72.6843 99.9601 72.6632 99.9226 72.6257C99.8851 72.5882 99.864 72.5373 99.864 72.4843V66.8562C99.864 66.8032 99.8851 66.7523 99.9226 66.7148C99.9601 66.6773 100.011 66.6562 100.064 66.6562C100.117 66.6562 100.168 66.6773 100.205 66.7148C100.243 66.7523 100.264 66.8032 100.264 66.8562V72.4843C100.264 72.5373 100.243 72.5882 100.205 72.6257C100.168 72.6632 100.117 72.6843 100.064 72.6843Z" fill="#263238"/>
<path id="Vector_214" d="M89.88 75.3805C89.8445 75.3806 89.8096 75.3715 89.7788 75.3539C89.7479 75.3364 89.7221 75.3111 89.704 75.2805L86.904 70.4045C86.8876 70.3819 86.8761 70.3561 86.8702 70.3287C86.8644 70.3013 86.8643 70.2731 86.8701 70.2457C86.8759 70.2183 86.8873 70.1924 86.9037 70.1697C86.9201 70.1471 86.9411 70.1281 86.9653 70.114C86.9895 70.0999 87.0163 70.0911 87.0442 70.0881C87.072 70.0851 87.1001 70.0879 87.1268 70.0964C87.1534 70.105 87.178 70.119 87.1989 70.1376C87.2198 70.1562 87.2365 70.179 87.248 70.2045L90.048 75.0805C90.0616 75.103 90.0704 75.128 90.0742 75.154C90.0779 75.18 90.0763 75.2064 90.0696 75.2318C90.0629 75.2571 90.0511 75.2809 90.0351 75.3017C90.019 75.3224 89.9989 75.3397 89.976 75.3525C89.9472 75.3704 89.914 75.38 89.88 75.3805Z" fill="#263238"/>
<path id="Vector_215" d="M86.952 115.508C86.9167 115.508 86.8821 115.499 86.852 115.48C86.8296 115.466 86.8104 115.447 86.7956 115.425C86.7808 115.403 86.7706 115.378 86.7657 115.351C86.7609 115.325 86.7614 115.298 86.7673 115.272C86.7732 115.246 86.7843 115.222 86.8 115.2L89.6 110.328C89.6132 110.305 89.6307 110.285 89.6515 110.269C89.6724 110.253 89.6963 110.241 89.7217 110.234C89.7471 110.228 89.7737 110.226 89.7998 110.229C89.826 110.233 89.8512 110.241 89.874 110.254C89.8969 110.267 89.9169 110.285 89.933 110.306C89.9491 110.327 89.9609 110.35 89.9678 110.376C89.9747 110.401 89.9764 110.428 89.9731 110.454C89.9697 110.48 89.9612 110.505 89.948 110.528L87.148 115.4C87.1298 115.436 87.1015 115.465 87.0665 115.484C87.0316 115.503 86.9917 115.512 86.952 115.508Z" fill="#263238"/>
<path id="Vector_216" d="M99.936 119.02C99.883 119.02 99.8321 118.999 99.7946 118.961C99.7571 118.924 99.736 118.873 99.736 118.82V113.2C99.736 113.147 99.7571 113.096 99.7946 113.059C99.8321 113.021 99.883 113 99.936 113C99.9887 113.001 100.039 113.022 100.076 113.06C100.114 113.097 100.135 113.147 100.136 113.2V118.828C100.134 118.88 100.112 118.928 100.075 118.964C100.037 119 99.9877 119.02 99.936 119.02Z" fill="#263238"/>
<path id="Vector_217" d="M112.936 115.572C112.901 115.572 112.867 115.563 112.837 115.545C112.807 115.528 112.782 115.503 112.764 115.472L109.964 110.6C109.951 110.578 109.942 110.552 109.939 110.526C109.936 110.5 109.937 110.474 109.944 110.448C109.951 110.423 109.963 110.399 109.979 110.378C109.995 110.357 110.015 110.34 110.038 110.326C110.061 110.313 110.086 110.305 110.112 110.301C110.138 110.298 110.165 110.3 110.19 110.307C110.216 110.314 110.24 110.325 110.261 110.342C110.281 110.358 110.299 110.378 110.312 110.4L113.112 115.272C113.126 115.295 113.134 115.32 113.138 115.346C113.142 115.372 113.14 115.398 113.134 115.424C113.127 115.449 113.115 115.473 113.099 115.494C113.083 115.514 113.063 115.532 113.04 115.544C113.009 115.564 112.973 115.574 112.936 115.572Z" fill="#263238"/>
<path id="Vector_218" d="M110.232 75.4439C110.197 75.4442 110.162 75.4345 110.132 75.4159C110.109 75.4031 110.089 75.3858 110.073 75.365C110.057 75.3443 110.045 75.3205 110.039 75.2951C110.032 75.2698 110.03 75.2433 110.034 75.2173C110.038 75.1914 110.047 75.1664 110.06 75.1439L112.86 70.2679C112.889 70.2279 112.932 70.2001 112.981 70.1898C113.029 70.1796 113.08 70.1878 113.122 70.2126C113.165 70.2375 113.197 70.2774 113.212 70.3246C113.227 70.3717 113.224 70.4228 113.204 70.4679L110.404 75.3439C110.386 75.3736 110.361 75.3983 110.331 75.4158C110.301 75.4333 110.267 75.4429 110.232 75.4439Z" fill="#263238"/>
</g>
</g>
</svg>
