<svg width="177" height="45" viewBox="0 0 177 45" fill="none" xmlns="http://www.w3.org/2000/svg">
<path d="M15.6576 0.612114H9.31689V5.28877L13.4344 2.33285L17.76 4.97998L15.6576 0.612114ZM30.3463 7.08618L24.5454 19.0909L18.783 7.10747L13.5063 3.87896L9.31689 6.88599V25.3818H15.6576V18.452C15.6576 15.741 15.6165 13.6667 15.2541 11.8225L21.5588 25.3797H27.5345L33.8752 11.8225C33.554 13.6646 33.554 14.8338 33.554 20.1919V25.3797H39.8947V3.70859H35.862L30.3463 7.08618ZM33.4743 0.612114L31.377 4.95016L35.3814 2.49896H39.8947V0.612114H33.4743Z" fill="#636363"/>
<path d="M53.3473 8.14212C59.7703 8.14212 64.4558 11.6901 64.4558 16.9801C64.4558 22.2701 59.7703 25.7839 53.3473 25.7839C46.8832 25.7839 42.1978 22.2701 42.1978 16.9801C42.1978 11.6901 46.8832 8.14212 53.3473 8.14212ZM53.3473 21.1627C56.2157 21.1627 58.1947 19.4888 58.1947 16.946C58.1947 14.4352 56.2157 12.7613 53.3473 12.7613C50.4378 12.7613 48.4588 14.4352 48.4588 16.946C48.4588 19.4909 50.4378 21.1627 53.3473 21.1627Z" fill="#636363"/>
<path d="M66.8613 25.3815V0.14325H73.0812V10.5869C74.2918 9.08129 76.9597 8.07611 79.8666 8.07611C85.521 8.07611 89.1168 11.7242 89.1168 17.1803C89.1168 22.368 85.1175 25.8159 79.3808 25.8159C76.5536 25.8159 74.1299 24.7788 73.0375 23.239L72.7137 25.3815H66.8613ZM78.052 21.0966C81 21.0966 82.8583 19.3908 82.8583 16.9119C82.8583 14.433 81 12.7272 78.052 12.7272C75.1425 12.7272 73.1249 14.4011 73.1249 16.9119C73.1224 19.4228 75.1425 21.0966 78.052 21.0966Z" fill="#636363"/>
<path d="M91.0625 3.08881C91.0625 1.449 92.638 0.175484 94.6171 0.175484C96.5576 0.175484 98.1331 1.44687 98.1331 3.08881C98.1331 4.73075 96.5576 6.03409 94.6171 6.03409C92.638 6.03409 91.0625 4.72862 91.0625 3.08881ZM91.5483 8.64501H97.7682V25.3817H91.5483V8.64501Z" fill="#636363"/>
<path d="M101.274 25.3815V0.14325H107.494V25.3815H101.274Z" fill="#636363"/>
<path d="M110.504 3.08881C110.504 1.449 112.079 0.175484 114.058 0.175484C115.999 0.175484 117.574 1.44687 117.574 3.08881C117.574 4.73075 115.999 6.03409 114.058 6.03409C112.079 6.03409 110.504 4.72862 110.504 3.08881ZM110.989 8.64501H117.209V25.3817H110.989V8.64501Z" fill="#636363"/>
<path d="M122.586 25.3815V18.1343C122.586 15.2785 125.362 12.9572 128.809 12.9295H118.749V8.64471H122.586V3.45694H128.809V8.64471H132.646V12.9295H128.809V25.3815H122.586Z" fill="#636363"/>
<path d="M133.535 29.0976H136.969C139.069 29.0976 139.958 28.561 140.765 26.7551L141.13 25.9522L133.011 8.64684H139.676L144.078 19.3929L148.967 8.64684H155.431L145.171 29.0316C143.474 32.4454 141.213 33.885 137.658 33.885C136.162 33.885 134.748 33.7168 133.538 33.4165V29.0976H133.535Z" fill="#636363"/>
<path d="M155.066 25.3818V20.2941L168.398 5.63377H155.469V0.612114H176.597V5.46553L163.064 20.3601H177V25.3797H155.066V25.3818Z" fill="#636363"/>
<path d="M75.0963 44.9953V40.702H68.9381V44.9953H66.8613V35.1884H68.9381V39.1878H75.0963V35.1884H77.173V44.9953H75.0963Z" fill="#6DE3F7"/>
<path d="M79.5864 44.9953V35.1884H87.6954V36.7026H81.6632V39.2325H87.5721V40.7467H81.6632V43.4812H87.6954V44.9953H79.5864Z" fill="#6DE3F7"/>
<path d="M98.1279 44.9953L97.2591 43.0978H91.8283L90.9595 44.9953H88.6001L93.2496 35.1884H95.8404L100.49 44.9953H98.1279ZM94.545 36.9091L92.4169 41.5858H96.6757L94.545 36.9091Z" fill="#6DE3F7"/>
<path d="M101.515 44.9953V35.1884H103.592V43.4812H108.81V44.9953H101.515Z" fill="#6DE3F7"/>
<path d="M111.519 44.9953V36.7026H107.933V35.1884H117.178V36.7026H113.593V44.9953H111.519Z" fill="#6DE3F7"/>
<path d="M126.729 44.9953V40.702H120.571V44.9953H118.494V35.1884H120.571V39.1878H126.729V35.1884H128.806V44.9953H126.729Z" fill="#6DE3F7"/>
<path d="M2.10254 10.4634L9.31712 5.28842V6.88351L3.05352 11.377L2.10254 10.4634Z" fill="#636363"/>
<path d="M24.5456 9.13453L31.3772 4.94981L30.3466 7.08583L24.5456 10.6359L18.7832 7.10713L17.7603 4.97963L24.5456 9.13453Z" fill="#636363"/>
<path d="M53.1623 2.50074H39.8975V3.70972H53.1623V2.50074Z" fill="#636363"/>
<path d="M53.1622 6.03411C55.114 6.03411 56.6962 4.72309 56.6962 3.10587C56.6962 1.48865 55.114 0.177635 53.1622 0.177635C51.2104 0.177635 49.6282 1.48865 49.6282 3.10587C49.6282 4.72309 51.2104 6.03411 53.1622 6.03411Z" fill="#636363"/>
<path d="M24.5454 12.0223C25.9692 12.0223 27.1234 11.066 27.1234 9.88629C27.1234 8.7066 25.9692 7.75027 24.5454 7.75027C23.1217 7.75027 21.9675 8.7066 21.9675 9.88629C21.9675 11.066 23.1217 12.0223 24.5454 12.0223Z" fill="#636363"/>
<path d="M2.57792 13.0552C4.00167 13.0552 5.15584 12.0988 5.15584 10.9192C5.15584 9.73947 4.00167 8.78314 2.57792 8.78314C1.15417 8.78314 0 9.73947 0 10.9192C0 12.0988 1.15417 13.0552 2.57792 13.0552Z" fill="#636363"/>
</svg>
